<svg width="343" height="286" viewBox="0 0 343 286" fill="none" xmlns="http://www.w3.org/2000/svg">
<g clip-path="url(#clip0_18933_1035)">
<rect y="0.228027" width="343" height="284.926" rx="30" fill="#271A58"/>
<rect x="0.202599" y="0.28958" width="96.1033" height="128.304" rx="19.75" transform="matrix(0.984808 0.173648 -0.174411 0.984673 -43.4034 -96.8777)" fill="#565EEF"/>
<rect x="0.202599" y="0.28958" width="96.1033" height="128.304" rx="19.75" transform="matrix(0.984808 0.173648 -0.174411 0.984673 -43.4034 -96.8777)" stroke="#271A58" stroke-width="0.5"/>
<rect x="0.202599" y="0.28958" width="96.1033" height="128.304" rx="19.75" transform="matrix(0.984808 0.173648 -0.174411 0.984673 57.3168 -79.1181)" fill="#009EE4"/>
<rect x="0.202599" y="0.28958" width="96.1033" height="128.304" rx="19.75" transform="matrix(0.984808 0.173648 -0.174411 0.984673 57.3168 -79.1181)" stroke="#271A58" stroke-width="0.5"/>
<mask id="path-5-outside-1_18933_1035" maskUnits="userSpaceOnUse" x="76.441" y="-27.0344" width="32.5198" height="38.1674" fill="black">
<rect fill="white" x="76.441" y="-27.0344" width="32.5198" height="38.1674"/>
<path d="M89.0878 -3.88089C89.3469 -5.3437 89.8812 -6.48645 90.6908 -7.30914C91.5055 -8.16108 92.6284 -9.0492 94.0594 -9.9735C95.0478 -10.6138 95.7935 -11.1611 96.2964 -11.6155C96.8045 -12.0991 97.113 -12.6482 97.2218 -13.2625C97.3721 -14.111 97.1255 -14.8483 96.4821 -15.4747C95.8732 -16.1251 94.9981 -16.5509 93.857 -16.7522C92.6866 -16.9585 91.5693 -16.8689 90.5053 -16.4833C89.4705 -16.0925 88.5724 -15.4514 87.811 -14.5599L81.8932 -19.2237C83.4556 -21.0601 85.4351 -22.3553 87.8318 -23.1094C90.2284 -23.8634 92.9775 -23.967 96.079 -23.4201C99.561 -22.8061 102.226 -21.582 104.073 -19.7477C105.955 -17.9375 106.666 -15.7306 106.205 -13.1268C105.992 -11.9273 105.598 -10.8955 105.023 -10.0316C104.453 -9.19685 103.818 -8.50927 103.119 -7.96882C102.454 -7.45247 101.598 -6.87931 100.551 -6.24934C99.4058 -5.57633 98.5448 -4.97391 97.9678 -4.44208C97.396 -3.93951 97.0401 -3.29326 96.9002 -2.50335L89.0878 -3.88089ZM90.9419 8.3933C89.5082 8.14049 88.4009 7.4927 87.62 6.44991C86.8443 5.37788 86.5705 4.19822 86.7985 2.91095C87.0317 1.59443 87.677 0.591922 88.7343 -0.0965653C89.8209 -0.779894 91.0957 -0.992574 92.5587 -0.734607C94.0217 -0.47664 95.1462 0.159108 95.9323 1.17263C96.7183 2.18616 96.9948 3.35119 96.7616 4.66771C96.5336 5.95498 95.8711 6.96953 94.7741 7.71138C93.6823 8.42396 92.4049 8.65127 90.9419 8.3933Z"/>
</mask>
<path d="M89.0878 -3.88089C89.3469 -5.3437 89.8812 -6.48645 90.6908 -7.30914C91.5055 -8.16108 92.6284 -9.0492 94.0594 -9.9735C95.0478 -10.6138 95.7935 -11.1611 96.2964 -11.6155C96.8045 -12.0991 97.113 -12.6482 97.2218 -13.2625C97.3721 -14.111 97.1255 -14.8483 96.4821 -15.4747C95.8732 -16.1251 94.9981 -16.5509 93.857 -16.7522C92.6866 -16.9585 91.5693 -16.8689 90.5053 -16.4833C89.4705 -16.0925 88.5724 -15.4514 87.811 -14.5599L81.8932 -19.2237C83.4556 -21.0601 85.4351 -22.3553 87.8318 -23.1094C90.2284 -23.8634 92.9775 -23.967 96.079 -23.4201C99.561 -22.8061 102.226 -21.582 104.073 -19.7477C105.955 -17.9375 106.666 -15.7306 106.205 -13.1268C105.992 -11.9273 105.598 -10.8955 105.023 -10.0316C104.453 -9.19685 103.818 -8.50927 103.119 -7.96882C102.454 -7.45247 101.598 -6.87931 100.551 -6.24934C99.4058 -5.57633 98.5448 -4.97391 97.9678 -4.44208C97.396 -3.93951 97.0401 -3.29326 96.9002 -2.50335L89.0878 -3.88089ZM90.9419 8.3933C89.5082 8.14049 88.4009 7.4927 87.62 6.44991C86.8443 5.37788 86.5705 4.19822 86.7985 2.91095C87.0317 1.59443 87.677 0.591922 88.7343 -0.0965653C89.8209 -0.779894 91.0957 -0.992574 92.5587 -0.734607C94.0217 -0.47664 95.1462 0.159108 95.9323 1.17263C96.7183 2.18616 96.9948 3.35119 96.7616 4.66771C96.5336 5.95498 95.8711 6.96953 94.7741 7.71138C93.6823 8.42396 92.4049 8.65127 90.9419 8.3933Z" fill="white"/>
<path d="M89.0878 -3.88089L88.6306 -3.96151L88.5496 -3.50438L89.0068 -3.42377L89.0878 -3.88089ZM90.6908 -7.30914L91.0217 -6.9837L91.0262 -6.98849L90.6908 -7.30914ZM94.0594 -9.9735L94.3111 -9.58366L94.3117 -9.584L94.0594 -9.9735ZM96.2964 -11.6155L96.6077 -11.2711L96.6165 -11.2794L96.2964 -11.6155ZM96.4821 -15.4747L96.143 -15.1573L96.1504 -15.1495L96.1581 -15.142L96.4821 -15.4747ZM90.5053 -16.4833L90.3473 -16.9197L90.3415 -16.9175L90.5053 -16.4833ZM87.811 -14.5599L87.5234 -14.1953L87.874 -13.919L88.164 -14.2586L87.811 -14.5599ZM81.8932 -19.2237L81.5397 -19.5243L81.2273 -19.1572L81.6056 -18.8591L81.8932 -19.2237ZM87.8318 -23.1094L87.9708 -22.6666L87.9708 -22.6666L87.8318 -23.1094ZM104.073 -19.7477L103.746 -19.4182L103.751 -19.4131L104.073 -19.7477ZM105.023 -10.0316L105.406 -9.76992L105.409 -9.77448L105.023 -10.0316ZM103.119 -7.96882L102.835 -8.33597L102.834 -8.3353L103.119 -7.96882ZM100.551 -6.24934L100.786 -5.8492L100.79 -5.85168L100.551 -6.24934ZM97.9678 -4.44208L98.2743 -4.09347L98.2824 -4.10092L97.9678 -4.44208ZM96.9002 -2.50335L96.8193 -2.04622L97.2765 -1.96561L97.3574 -2.42273L96.9002 -2.50335ZM87.62 6.44991L87.2437 6.72219L87.2483 6.72827L87.62 6.44991ZM88.7343 -0.0965648L88.4873 -0.489473L88.4811 -0.485465L88.7343 -0.0965648ZM95.9323 1.17263L95.5653 1.45723L95.9323 1.17263ZM94.7741 7.71137L95.0278 8.10006L95.0341 8.09579L94.7741 7.71137ZM89.545 -3.80028C89.7924 -5.19707 90.2946 -6.2449 91.0216 -6.98373L90.3599 -7.63454C89.4678 -6.72799 88.9014 -5.49032 88.6306 -3.96151L89.545 -3.80028ZM91.0262 -6.98849C91.8075 -7.8054 92.8984 -8.67117 94.3111 -9.58366L93.8076 -10.3633C92.3583 -9.42724 91.2035 -8.51676 90.3553 -7.62978L91.0262 -6.98849ZM94.3117 -9.584C95.3081 -10.2295 96.0777 -10.7924 96.6076 -11.2712L95.9853 -11.9598C95.5094 -11.5298 94.7875 -10.9981 93.8071 -10.363L94.3117 -9.584ZM96.6165 -11.2794C97.1871 -11.8226 97.5508 -12.458 97.679 -13.1819L96.7646 -13.3431C96.6752 -12.8383 96.422 -12.3757 95.9764 -11.9516L96.6165 -11.2794ZM97.679 -13.1819C97.8574 -14.1892 97.5541 -15.0793 96.8062 -15.8074L96.1581 -15.142C96.697 -14.6174 96.8868 -14.0327 96.7646 -13.3431L97.679 -13.1819ZM96.8212 -15.792C96.1255 -16.5351 95.1483 -16.9959 93.9379 -17.2093L93.776 -16.295C94.8479 -16.106 95.6208 -15.7151 96.143 -15.1573L96.8212 -15.792ZM93.9379 -17.2093C92.6917 -17.429 91.4918 -17.3344 90.3473 -16.9197L90.6632 -16.0469C91.6469 -16.4034 92.6815 -16.488 93.776 -16.295L93.9379 -17.2093ZM90.3415 -16.9175C89.229 -16.4974 88.2671 -15.8085 87.458 -14.8611L88.164 -14.2586C88.8777 -15.0943 89.712 -15.6876 90.6691 -16.0491L90.3415 -16.9175ZM88.0986 -14.9245L82.1808 -19.5883L81.6056 -18.8591L87.5234 -14.1953L88.0986 -14.9245ZM82.2468 -18.9231C83.7501 -20.69 85.654 -21.9377 87.9708 -22.6666L87.6927 -23.5521C85.2163 -22.773 83.1612 -21.4302 81.5397 -19.5243L82.2468 -18.9231ZM87.9708 -22.6666C90.2805 -23.3933 92.9517 -23.5001 95.9981 -22.963L96.16 -23.8772C93.0032 -24.4338 90.1762 -24.3335 87.6927 -23.5521L87.9708 -22.6666ZM95.9981 -22.963C99.4194 -22.3597 101.986 -21.1658 103.746 -19.4182L104.401 -20.0772C102.466 -21.9982 99.7026 -23.2526 96.16 -23.8772L95.9981 -22.963ZM103.751 -19.4131C105.52 -17.7117 106.182 -15.6611 105.748 -13.2074L106.662 -13.0461C107.15 -15.8 106.391 -18.1634 104.395 -20.0823L103.751 -19.4131ZM105.748 -13.2074C105.544 -12.0601 105.171 -11.0908 104.636 -10.2886L105.409 -9.77448C106.026 -10.7002 106.44 -11.7944 106.662 -13.0461L105.748 -13.2074ZM104.639 -10.2932C104.093 -9.49295 103.49 -8.84273 102.835 -8.33597L103.402 -7.60168C104.145 -8.17581 104.812 -8.90075 105.406 -9.76994L104.639 -10.2932ZM102.834 -8.3353C102.189 -7.83402 101.349 -7.27131 100.312 -6.64699L100.79 -5.85168C101.847 -6.48731 102.719 -7.07093 103.403 -7.60235L102.834 -8.3353ZM100.316 -6.64945C99.1589 -5.96949 98.2655 -5.34763 97.6532 -4.78324L98.2824 -4.10092C98.8241 -4.60019 99.6528 -5.18316 100.786 -5.84923L100.316 -6.64945ZM97.6614 -4.79059C97.0059 -4.21445 96.6003 -3.47162 96.443 -2.58396L97.3574 -2.42273C97.48 -3.1149 97.7861 -3.66457 98.2742 -4.09356L97.6614 -4.79059ZM96.9812 -2.96048L89.1687 -4.33802L89.0068 -3.42377L96.8193 -2.04622L96.9812 -2.96048ZM91.0229 7.93617C89.6906 7.70125 88.6935 7.10864 87.9918 6.17156L87.2483 6.72827C88.1083 7.87675 89.3258 8.57974 90.861 8.85043L91.0229 7.93617ZM87.9963 6.17768C87.2932 5.20598 87.0499 4.15334 87.2557 2.99157L86.3413 2.83034C86.0911 4.24311 86.3955 5.54977 87.2438 6.72215L87.9963 6.17768ZM87.2557 2.99157C87.468 1.79304 88.0449 0.906088 88.9875 0.292335L88.4811 -0.485465C87.309 0.277757 86.5954 1.39582 86.3413 2.83034L87.2557 2.99157ZM88.9813 0.296295C89.9551 -0.316066 91.1091 -0.518803 92.4777 -0.27748L92.6397 -1.19173C91.0823 -1.46634 89.6867 -1.24372 88.4873 -0.489425L88.9813 0.296295ZM92.4777 -0.27748C93.8464 -0.0361566 94.8609 0.54896 95.5653 1.45723L96.2993 0.888044C95.4316 -0.230745 94.1971 -0.917122 92.6397 -1.19173L92.4777 -0.27748ZM95.5653 1.45723C96.2673 2.36241 96.5158 3.39347 96.3044 4.5871L97.2188 4.74833C97.4737 3.3089 97.1694 2.00991 96.2993 0.888044L95.5653 1.45723ZM96.3044 4.5871C96.0986 5.74887 95.5085 6.65455 94.5142 7.32696L95.0341 8.09579C96.2337 7.28452 96.9685 6.1611 97.2188 4.74833L96.3044 4.5871ZM94.5205 7.32275C93.5415 7.96174 92.3872 8.17674 91.0229 7.93617L90.861 8.85043C92.4226 9.12579 93.8232 8.88617 95.0277 8.1L94.5205 7.32275Z" fill="#271A58" mask="url(#path-5-outside-1_18933_1035)"/>
<rect x="0.202599" y="0.28958" width="96.1033" height="128.304" rx="19.75" transform="matrix(0.984808 0.173648 -0.174411 0.984673 158.037 -61.3584)" fill="#AD61FF"/>
<rect x="0.202599" y="0.28958" width="96.1033" height="128.304" rx="19.75" transform="matrix(0.984808 0.173648 -0.174411 0.984673 158.037 -61.3584)" stroke="#271A58" stroke-width="0.5"/>
<mask id="path-8-outside-2_18933_1035" maskUnits="userSpaceOnUse" x="172.525" y="-12.9232" width="40.6343" height="46.2756" fill="black">
<rect fill="white" x="172.525" y="-12.9232" width="40.6343" height="46.2756"/>
<path d="M188.678 14.977C188.999 13.1637 189.661 11.7473 190.665 10.7275C191.674 9.67148 193.066 8.57062 194.84 7.42491C196.065 6.63124 196.99 5.95279 197.613 5.38957C198.243 4.79009 198.625 4.10957 198.76 3.34802C198.946 2.29636 198.641 1.38234 197.843 0.605973C197.088 -0.200268 196.004 -0.728095 194.589 -0.977509C193.138 -1.23332 191.754 -1.12223 190.435 -0.644258C189.152 -0.159886 188.039 0.634838 187.095 1.73992L179.76 -4.04112C181.696 -6.31741 184.15 -7.92288 187.121 -8.85754C190.091 -9.7922 193.499 -9.92059 197.344 -9.24269C201.66 -8.48166 204.963 -6.96431 207.253 -4.69064C209.586 -2.44685 210.466 0.288806 209.895 3.51632C209.631 5.00315 209.143 6.28202 208.43 7.35294C207.723 8.3876 206.936 9.23988 206.069 9.90979C205.245 10.5498 204.185 11.2603 202.887 12.0412C201.467 12.8754 200.4 13.6221 199.685 14.2813C198.976 14.9043 198.535 15.7053 198.362 16.6845L188.678 14.977ZM190.976 30.1913C189.199 29.878 187.826 29.075 186.858 27.7824C185.897 26.4536 185.557 24.9914 185.84 23.3957C186.129 21.7638 186.929 20.5212 188.24 19.6678C189.586 18.8208 191.167 18.5571 192.98 18.8769C194.793 19.1967 196.187 19.9847 197.162 21.241C198.136 22.4973 198.479 23.9414 198.19 25.5733C197.907 27.1689 197.086 28.4265 195.726 29.3461C194.373 30.2293 192.789 30.5111 190.976 30.1913Z"/>
</mask>
<path d="M188.678 14.977C188.999 13.1637 189.661 11.7473 190.665 10.7275C191.674 9.67148 193.066 8.57062 194.84 7.42491C196.065 6.63124 196.99 5.95279 197.613 5.38957C198.243 4.79009 198.625 4.10957 198.76 3.34802C198.946 2.29636 198.641 1.38234 197.843 0.605973C197.088 -0.200268 196.004 -0.728095 194.589 -0.977509C193.138 -1.23332 191.754 -1.12223 190.435 -0.644258C189.152 -0.159886 188.039 0.634838 187.095 1.73992L179.76 -4.04112C181.696 -6.31741 184.15 -7.92288 187.121 -8.85754C190.091 -9.7922 193.499 -9.92059 197.344 -9.24269C201.66 -8.48166 204.963 -6.96431 207.253 -4.69064C209.586 -2.44685 210.466 0.288806 209.895 3.51632C209.631 5.00315 209.143 6.28202 208.43 7.35294C207.723 8.3876 206.936 9.23988 206.069 9.90979C205.245 10.5498 204.185 11.2603 202.887 12.0412C201.467 12.8754 200.4 13.6221 199.685 14.2813C198.976 14.9043 198.535 15.7053 198.362 16.6845L188.678 14.977ZM190.976 30.1913C189.199 29.878 187.826 29.075 186.858 27.7824C185.897 26.4536 185.557 24.9914 185.84 23.3957C186.129 21.7638 186.929 20.5212 188.24 19.6678C189.586 18.8208 191.167 18.5571 192.98 18.8769C194.793 19.1967 196.187 19.9847 197.162 21.241C198.136 22.4973 198.479 23.9414 198.19 25.5733C197.907 27.1689 197.086 28.4265 195.726 29.3461C194.373 30.2293 192.789 30.5111 190.976 30.1913Z" fill="white"/>
<path d="M188.678 14.977L188.22 14.8963L188.14 15.3535L188.597 15.4341L188.678 14.977ZM190.665 10.7275L190.996 11.0529L191 11.0481L190.665 10.7275ZM194.84 7.42491L195.092 7.81475L195.092 7.81441L194.84 7.42491ZM197.613 5.38957L197.924 5.73397L197.933 5.72564L197.613 5.38957ZM197.843 0.605972L197.504 0.923306L197.512 0.931153L197.519 0.938653L197.843 0.605972ZM190.435 -0.644259L190.277 -1.08068L190.271 -1.07848L190.435 -0.644259ZM187.095 1.73992L186.807 2.10453L187.158 2.38081L187.448 2.04117L187.095 1.73992ZM179.76 -4.04112L179.406 -4.34171L179.094 -3.97463L179.472 -3.67651L179.76 -4.04112ZM187.121 -8.85754L187.26 -8.41478L187.121 -8.85754ZM207.253 -4.69064L206.926 -4.36112L206.931 -4.35602L207.253 -4.69064ZM208.43 7.35294L208.813 7.61458L208.816 7.61002L208.43 7.35294ZM206.069 9.90979L205.786 9.54264L205.785 9.54332L206.069 9.90979ZM202.887 12.0412L203.122 12.4413L203.126 12.4388L202.887 12.0412ZM199.685 14.2813L199.991 14.63L199.999 14.6225L199.685 14.2813ZM198.362 16.6845L198.281 17.1416L198.738 17.2222L198.819 16.7651L198.362 16.6845ZM186.858 27.7824L186.482 28.0547L186.487 28.0608L186.858 27.7824ZM188.24 19.6678L187.992 19.2749L187.986 19.2789L188.24 19.6678ZM197.162 21.241L196.795 21.5256L197.162 21.241ZM195.726 29.3461L195.98 29.7347L195.986 29.7305L195.726 29.3461ZM189.135 15.0576C189.444 13.3104 190.075 11.9888 190.995 11.0529L190.334 10.4021C189.248 11.5057 188.553 13.0171 188.22 14.8963L189.135 15.0576ZM191 11.0481C191.976 10.0272 193.336 8.94865 195.092 7.81475L194.588 7.03508C192.796 8.19258 191.373 9.3158 190.329 10.4069L191 11.0481ZM195.092 7.81441C196.326 7.01554 197.274 6.32148 197.924 5.73385L197.302 5.04529C196.706 5.58411 195.805 6.24694 194.588 7.03541L195.092 7.81441ZM197.933 5.72564C198.625 5.06666 199.063 4.2997 199.217 3.42864L198.303 3.26741C198.187 3.91944 197.86 4.51351 197.293 5.05351L197.933 5.72564ZM199.217 3.42864C199.432 2.2181 199.069 1.15141 198.167 0.273292L197.519 0.938653C198.212 1.61328 198.461 2.37462 198.303 3.26741L199.217 3.42864ZM198.182 0.28864C197.341 -0.610233 196.154 -1.17302 194.67 -1.43464L194.508 -0.520382C195.854 -0.283169 196.836 0.209698 197.504 0.923306L198.182 0.28864ZM194.67 -1.43464C193.144 -1.70382 191.676 -1.58774 190.277 -1.08064L190.593 -0.207878C191.831 -0.656725 193.133 -0.762814 194.508 -0.520382L194.67 -1.43464ZM190.271 -1.07848C188.911 -0.564773 187.734 0.277716 186.742 1.43866L187.448 2.04117C188.344 0.991962 189.394 0.245 190.599 -0.210039L190.271 -1.07848ZM187.383 1.3753L180.047 -4.40573L179.472 -3.67651L186.807 2.10453L187.383 1.3753ZM180.113 -3.74053C181.991 -5.9473 184.369 -7.50521 187.26 -8.41478L186.982 -9.3003C183.931 -8.34055 181.402 -6.68752 179.406 -4.34171L180.113 -3.74053ZM187.26 -8.41478C190.144 -9.32208 193.473 -9.45373 197.263 -8.78556L197.425 -9.69982C193.525 -10.3874 190.039 -10.2623 186.982 -9.3003L187.26 -8.41478ZM197.263 -8.78556C201.518 -8.03522 204.723 -6.54813 206.926 -4.36116L207.58 -5.02013C205.203 -7.38049 201.801 -8.9281 197.425 -9.69982L197.263 -8.78556ZM206.931 -4.35602C209.151 -2.221 209.983 0.358269 209.438 3.4357L210.352 3.59693C210.95 0.219343 210.021 -2.67269 207.575 -5.02527L206.931 -4.35602ZM209.438 3.4357C209.184 4.8703 208.716 6.08672 208.043 7.09586L208.816 7.61002C209.571 6.47733 210.079 5.136 210.352 3.59693L209.438 3.4357ZM208.046 7.09133C207.363 8.0915 206.609 8.90642 205.786 9.54264L206.353 10.2769C207.264 9.57334 208.083 8.6837 208.813 7.61456L208.046 7.09133ZM205.785 9.54332C204.98 10.1683 203.936 10.8683 202.648 11.6435L203.126 12.4388C204.433 11.6523 205.511 10.9314 206.354 10.2763L205.785 9.54332ZM202.652 11.6411C201.22 12.4822 200.121 13.2484 199.37 13.9402L199.999 14.6225C200.679 13.9958 201.714 13.2686 203.122 12.4413L202.652 11.6411ZM199.378 13.9328C198.586 14.6294 198.095 15.527 197.904 16.6039L198.819 16.7651C198.975 15.8837 199.366 15.1792 199.991 14.6299L199.378 13.9328ZM198.442 16.2274L188.759 14.5198L188.597 15.4341L198.281 17.1416L198.442 16.2274ZM191.057 29.7342C189.381 29.4387 188.119 28.6909 187.23 27.5041L186.487 28.0608C187.534 29.459 189.016 30.3172 190.895 30.6485L191.057 29.7342ZM187.235 27.5102C186.346 26.2817 186.037 24.9465 186.297 23.4763L185.383 23.3151C185.078 25.0362 185.448 26.6255 186.482 28.0547L187.235 27.5102ZM186.297 23.4763C186.565 21.9625 187.297 20.8354 188.493 20.0567L187.986 19.2789C186.561 20.207 185.693 21.5652 185.383 23.3151L186.297 23.4763ZM188.487 20.0606C189.721 19.2846 191.18 19.0309 192.899 19.334L193.061 18.4198C191.153 18.0834 189.452 18.3569 187.992 19.2749L188.487 20.0606ZM192.899 19.334C194.618 19.6371 195.902 20.3746 196.795 21.5256L197.529 20.9564C196.473 19.5948 194.969 18.7562 193.061 18.4198L192.899 19.334ZM196.795 21.5256C197.685 22.6736 198 23.9837 197.732 25.4927L198.647 25.6539C198.958 23.8991 198.587 22.3211 197.529 20.9564L196.795 21.5256ZM197.732 25.4927C197.472 26.9628 196.723 28.1115 195.466 28.9616L195.986 29.7305C197.448 28.7415 198.342 27.375 198.647 25.6539L197.732 25.4927ZM195.472 28.9574C194.232 29.7671 192.772 30.0366 191.057 29.7342L190.895 30.6485C192.807 30.9856 194.514 30.6915 195.98 29.7347L195.472 28.9574Z" fill="#271A58" mask="url(#path-8-outside-2_18933_1035)"/>
<rect x="0.202599" y="0.28958" width="96.1033" height="128.304" rx="19.75" transform="matrix(0.984808 0.173648 -0.174411 0.984673 258.757 -43.5989)" fill="#F25050"/>
<rect x="0.202599" y="0.28958" width="96.1033" height="128.304" rx="19.75" transform="matrix(0.984808 0.173648 -0.174411 0.984673 258.757 -43.5989)" stroke="#271A58" stroke-width="0.5"/>
<mask id="path-11-outside-3_18933_1035" maskUnits="userSpaceOnUse" x="273.245" y="4.83635" width="40.6343" height="46.2756" fill="black">
<rect fill="white" x="273.245" y="4.83635" width="40.6343" height="46.2756"/>
<path d="M289.398 32.7365C289.719 30.9233 290.381 29.5068 291.385 28.487C292.395 27.431 293.787 26.3301 295.56 25.1844C296.786 24.3908 297.71 23.7123 298.333 23.1491C298.963 22.5496 299.345 21.8691 299.48 21.1075C299.667 20.0559 299.361 19.1419 298.563 18.3655C297.809 17.5593 296.724 17.0314 295.309 16.782C293.859 16.5262 292.474 16.6373 291.155 17.1153C289.872 17.5996 288.759 18.3944 287.815 19.4994L280.48 13.7184C282.417 11.4421 284.87 9.83664 287.841 8.90198C290.812 7.96732 294.219 7.83894 298.064 8.51683C302.38 9.27786 305.683 10.7952 307.973 13.0689C310.306 15.3127 311.187 18.0483 310.615 21.2758C310.352 22.7627 309.863 24.0415 309.15 25.1125C308.443 26.1471 307.656 26.9994 306.79 27.6693C305.966 28.3093 304.905 29.0198 303.607 29.8007C302.188 30.6349 301.12 31.3816 300.405 32.0409C299.696 32.6638 299.255 33.4649 299.082 34.444L289.398 32.7365ZM291.696 47.9508C289.919 47.6375 288.546 46.8345 287.579 45.5419C286.617 44.2131 286.278 42.7509 286.56 41.1553C286.849 39.5234 287.649 38.2807 288.96 37.4273C290.307 36.5803 291.887 36.3167 293.7 36.6364C295.514 36.9562 296.908 37.7442 297.882 39.0005C298.856 40.2568 299.199 41.7009 298.91 43.3328C298.627 44.9284 297.806 46.186 296.446 47.1056C295.093 47.9889 293.51 48.2706 291.696 47.9508Z"/>
</mask>
<path d="M289.398 32.7365C289.719 30.9233 290.381 29.5068 291.385 28.487C292.395 27.431 293.787 26.3301 295.56 25.1844C296.786 24.3908 297.71 23.7123 298.333 23.1491C298.963 22.5496 299.345 21.8691 299.48 21.1075C299.667 20.0559 299.361 19.1419 298.563 18.3655C297.809 17.5593 296.724 17.0314 295.309 16.782C293.859 16.5262 292.474 16.6373 291.155 17.1153C289.872 17.5996 288.759 18.3944 287.815 19.4994L280.48 13.7184C282.417 11.4421 284.87 9.83664 287.841 8.90198C290.812 7.96732 294.219 7.83894 298.064 8.51683C302.38 9.27786 305.683 10.7952 307.973 13.0689C310.306 15.3127 311.187 18.0483 310.615 21.2758C310.352 22.7627 309.863 24.0415 309.15 25.1125C308.443 26.1471 307.656 26.9994 306.79 27.6693C305.966 28.3093 304.905 29.0198 303.607 29.8007C302.188 30.6349 301.12 31.3816 300.405 32.0409C299.696 32.6638 299.255 33.4649 299.082 34.444L289.398 32.7365ZM291.696 47.9508C289.919 47.6375 288.546 46.8345 287.579 45.5419C286.617 44.2131 286.278 42.7509 286.56 41.1553C286.849 39.5234 287.649 38.2807 288.96 37.4273C290.307 36.5803 291.887 36.3167 293.7 36.6364C295.514 36.9562 296.908 37.7442 297.882 39.0005C298.856 40.2568 299.199 41.7009 298.91 43.3328C298.627 44.9284 297.806 46.186 296.446 47.1056C295.093 47.9889 293.51 48.2706 291.696 47.9508Z" fill="white"/>
<path d="M289.398 32.7365L288.941 32.6559L288.86 33.113L289.317 33.1936L289.398 32.7365ZM291.385 28.487L291.716 28.8125L291.72 28.8077L291.385 28.487ZM295.56 25.1844L295.812 25.5743L295.813 25.5739L295.56 25.1844ZM298.333 23.1491L298.645 23.4935L298.653 23.4852L298.333 23.1491ZM298.563 18.3655L298.224 18.6828L298.232 18.6907L298.239 18.6982L298.563 18.3655ZM291.155 17.1153L290.997 16.6788L290.991 16.681L291.155 17.1153ZM287.815 19.4994L287.528 19.864L287.878 20.1403L288.168 19.8007L287.815 19.4994ZM280.48 13.7184L280.126 13.4178L279.814 13.7849L280.192 14.083L280.48 13.7184ZM287.841 8.90198L287.98 9.34474L287.841 8.90198ZM307.973 13.0689L307.646 13.3984L307.651 13.4035L307.973 13.0689ZM309.15 25.1125L309.533 25.3741L309.536 25.3695L309.15 25.1125ZM306.79 27.6693L306.506 27.3022L306.505 27.3028L306.79 27.6693ZM303.607 29.8007L303.842 30.2008L303.846 30.1983L303.607 29.8007ZM300.405 32.0409L300.712 32.3895L300.72 32.382L300.405 32.0409ZM299.082 34.444L299.001 34.9011L299.458 34.9817L299.539 34.5246L299.082 34.444ZM287.579 45.5419L287.202 45.8142L287.207 45.8203L287.579 45.5419ZM288.96 37.4273L288.713 37.0344L288.707 37.0384L288.96 37.4273ZM297.882 39.0005L297.515 39.2851L297.882 39.0005ZM296.446 47.1056L296.7 47.4943L296.706 47.49L296.446 47.1056ZM289.855 32.8171C290.165 31.0699 290.795 29.7483 291.716 28.8124L291.054 28.1616C289.968 29.2652 289.274 30.7766 288.941 32.6559L289.855 32.8171ZM291.72 28.8077C292.697 27.7867 294.057 26.7082 295.812 25.5743L295.309 24.7946C293.517 25.9521 292.093 27.0753 291.049 28.1664L291.72 28.8077ZM295.813 25.5739C297.046 24.7751 297.994 24.081 298.644 23.4934L298.022 22.8048C297.426 23.3436 296.525 24.0065 295.308 24.7949L295.813 25.5739ZM298.653 23.4852C299.346 22.8262 299.783 22.0592 299.938 21.1882L299.023 21.0269C298.908 21.679 298.581 22.273 298.013 22.813L298.653 23.4852ZM299.938 21.1882C300.152 19.9776 299.79 18.9109 298.888 18.0328L298.239 18.6982C298.932 19.3728 299.181 20.1341 299.023 21.0269L299.938 21.1882ZM298.903 18.0482C298.061 17.1493 296.874 16.5865 295.39 16.3249L295.229 17.2391C296.574 17.4764 297.556 17.9692 298.224 18.6828L298.903 18.0482ZM295.39 16.3249C293.864 16.0557 292.396 16.1718 290.997 16.6789L291.313 17.5516C292.551 17.1028 293.854 16.9967 295.229 17.2391L295.39 16.3249ZM290.991 16.681C289.631 17.1947 288.454 18.0372 287.462 19.1982L288.168 19.8007C289.064 18.7515 290.114 18.0045 291.319 17.5495L290.991 16.681ZM288.103 19.1348L280.768 13.3538L280.192 14.083L287.528 19.864L288.103 19.1348ZM280.834 14.019C282.711 11.8122 285.089 10.2543 287.98 9.34474L287.702 8.45922C284.651 9.41897 282.122 11.072 280.126 13.4178L280.834 14.019ZM287.98 9.34474C290.864 8.43744 294.193 8.30579 297.983 8.97396L298.145 8.0597C294.245 7.37208 290.76 7.4972 287.702 8.45922L287.98 9.34474ZM297.983 8.97396C302.238 9.7243 305.443 11.2114 307.646 13.3984L308.3 12.7394C305.923 10.379 302.521 8.83142 298.145 8.0597L297.983 8.97396ZM307.651 13.4035C309.871 15.5385 310.703 18.1178 310.158 21.1952L311.072 21.3565C311.67 17.9789 310.741 15.0868 308.295 12.7343L307.651 13.4035ZM310.158 21.1952C309.904 22.6298 309.436 23.8462 308.764 24.8554L309.536 25.3695C310.291 24.2369 310.8 22.8955 311.072 21.3565L310.158 21.1952ZM308.767 24.8508C308.083 25.851 307.329 26.6659 306.506 27.3022L307.073 28.0365C307.984 27.3329 308.803 26.4432 309.533 25.3741L308.767 24.8508ZM306.505 27.3028C305.7 27.9278 304.656 28.6278 303.368 29.403L303.846 30.1983C305.153 29.4118 306.231 28.6909 307.074 28.0358L306.505 27.3028ZM303.372 29.4006C301.941 30.2418 300.841 31.0079 300.09 31.6997L300.72 32.382C301.399 31.7554 302.434 31.0281 303.842 30.2008L303.372 29.4006ZM300.099 31.6923C299.306 32.3889 298.815 33.2865 298.625 34.3634L299.539 34.5246C299.695 33.6432 300.086 32.9388 300.711 32.3894L300.099 31.6923ZM299.163 33.9869L289.479 32.2793L289.317 33.1936L299.001 34.9011L299.163 33.9869ZM291.777 47.4937C290.101 47.1982 288.839 46.4505 287.95 45.2636L287.207 45.8203C288.254 47.2186 289.737 48.0767 291.615 48.408L291.777 47.4937ZM287.955 45.2697C287.066 44.0412 286.757 42.706 287.017 41.2359L286.103 41.0746C285.798 42.7958 286.168 44.385 287.202 45.8142L287.955 45.2697ZM287.017 41.2359C287.286 39.722 288.017 38.5949 289.213 37.8162L288.707 37.0384C287.281 37.9665 286.413 39.3247 286.103 41.0746L287.017 41.2359ZM289.207 37.8202C290.441 37.0441 291.9 36.7904 293.619 37.0936L293.781 36.1793C291.873 35.8429 290.172 36.1165 288.713 37.0344L289.207 37.8202ZM293.619 37.0936C295.338 37.3967 296.622 38.1341 297.515 39.2851L298.249 38.7159C297.193 37.3544 295.689 36.5157 293.781 36.1793L293.619 37.0936ZM297.515 39.2851C298.405 40.4331 298.72 41.7432 298.453 43.2522L299.367 43.4134C299.678 41.6587 299.307 40.0806 298.249 38.7159L297.515 39.2851ZM298.453 43.2522C298.192 44.7223 297.443 45.871 296.186 46.7212L296.706 47.49C298.169 46.501 299.062 45.1346 299.367 43.4134L298.453 43.2522ZM296.193 46.7169C294.952 47.5266 293.492 47.7961 291.777 47.4937L291.615 48.408C293.527 48.7451 295.234 48.4511 296.7 47.4942L296.193 46.7169Z" fill="#271A58" mask="url(#path-11-outside-3_18933_1035)"/>
<rect x="0.202599" y="0.28958" width="96.1033" height="128.304" rx="19.75" transform="matrix(0.984808 0.173648 -0.174411 0.984673 359.477 -25.8391)" fill="#009EE4"/>
<rect x="0.202599" y="0.28958" width="96.1033" height="128.304" rx="19.75" transform="matrix(0.984808 0.173648 -0.174411 0.984673 359.477 -25.8391)" stroke="#271A58" stroke-width="0.5"/>
<rect x="0.202599" y="0.28958" width="96.1033" height="128.304" rx="19.75" transform="matrix(0.984808 0.173648 -0.174411 0.984673 -66.7374 35.4561)" fill="#1FA46C"/>
<rect x="0.202599" y="0.28958" width="96.1033" height="128.304" rx="19.75" transform="matrix(0.984808 0.173648 -0.174411 0.984673 -66.7374 35.4561)" stroke="#271A58" stroke-width="0.5"/>
<rect x="0.202599" y="0.28958" width="96.1033" height="128.304" rx="19.75" transform="matrix(0.984808 0.173648 -0.174411 0.984673 33.9828 53.2158)" fill="#F25050"/>
<rect x="0.202599" y="0.28958" width="96.1033" height="128.304" rx="19.75" transform="matrix(0.984808 0.173648 -0.174411 0.984673 33.9828 53.2158)" stroke="#271A58" stroke-width="0.5"/>
<mask id="path-16-outside-4_18933_1035" maskUnits="userSpaceOnUse" x="48.4704" y="101.651" width="40.6343" height="46.2756" fill="black">
<rect fill="white" x="48.4704" y="101.651" width="40.6343" height="46.2756"/>
<path d="M64.6235 129.551C64.9446 127.738 65.6069 126.321 66.6104 125.302C67.6203 124.246 69.0122 123.145 70.786 121.999C72.0112 121.205 72.9355 120.527 73.5589 119.964C74.1887 119.364 74.5711 118.684 74.7059 117.922C74.8922 116.871 74.5866 115.957 73.7891 115.18C73.0342 114.374 71.9496 113.846 70.5351 113.597C69.0843 113.341 67.6994 113.452 66.3805 113.93C65.0979 114.414 63.9847 115.209 63.0409 116.314L55.7055 110.533C57.6422 108.257 60.0959 106.651 63.0666 105.717C66.0373 104.782 69.4449 104.654 73.2894 105.332C77.6054 106.093 80.9085 107.61 83.1988 109.884C85.5317 112.127 86.4123 114.863 85.8406 118.091C85.5772 119.577 85.0889 120.856 84.3756 121.927C83.6687 122.962 82.8819 123.814 82.0152 124.484C81.1912 125.124 80.1303 125.835 78.8326 126.615C77.4131 127.45 76.3458 128.196 75.6306 128.856C74.9219 129.479 74.4807 130.28 74.3073 131.259L64.6235 129.551ZM66.9218 144.766C65.1446 144.452 63.772 143.649 62.8041 142.357C61.8426 141.028 61.5032 139.566 61.7858 137.97C62.0749 136.338 62.8747 135.095 64.1853 134.242C65.5322 133.395 67.1124 133.131 68.9258 133.451C70.7393 133.771 72.1332 134.559 73.1075 135.815C74.0819 137.072 74.4245 138.516 74.1355 140.148C73.8528 141.743 73.0316 143.001 71.6719 143.92C70.3186 144.804 68.7352 145.085 66.9218 144.766Z"/>
</mask>
<path d="M64.6235 129.551C64.9446 127.738 65.6069 126.321 66.6104 125.302C67.6203 124.246 69.0122 123.145 70.786 121.999C72.0112 121.205 72.9355 120.527 73.5589 119.964C74.1887 119.364 74.5711 118.684 74.7059 117.922C74.8922 116.871 74.5866 115.957 73.7891 115.18C73.0342 114.374 71.9496 113.846 70.5351 113.597C69.0843 113.341 67.6994 113.452 66.3805 113.93C65.0979 114.414 63.9847 115.209 63.0409 116.314L55.7055 110.533C57.6422 108.257 60.0959 106.651 63.0666 105.717C66.0373 104.782 69.4449 104.654 73.2894 105.332C77.6054 106.093 80.9085 107.61 83.1988 109.884C85.5317 112.127 86.4123 114.863 85.8406 118.091C85.5772 119.577 85.0889 120.856 84.3756 121.927C83.6687 122.962 82.8819 123.814 82.0152 124.484C81.1912 125.124 80.1303 125.835 78.8326 126.615C77.4131 127.45 76.3458 128.196 75.6306 128.856C74.9219 129.479 74.4807 130.28 74.3073 131.259L64.6235 129.551ZM66.9218 144.766C65.1446 144.452 63.772 143.649 62.8041 142.357C61.8426 141.028 61.5032 139.566 61.7858 137.97C62.0749 136.338 62.8747 135.095 64.1853 134.242C65.5322 133.395 67.1124 133.131 68.9258 133.451C70.7393 133.771 72.1332 134.559 73.1075 135.815C74.0819 137.072 74.4245 138.516 74.1355 140.148C73.8528 141.743 73.0316 143.001 71.6719 143.92C70.3186 144.804 68.7352 145.085 66.9218 144.766Z" fill="white"/>
<path d="M64.6235 129.551L64.1663 129.471L64.0853 129.928L64.5425 130.008L64.6235 129.551ZM66.6104 125.302L66.9413 125.627L66.9459 125.622L66.6104 125.302ZM70.786 121.999L71.0377 122.389L71.0382 122.389L70.786 121.999ZM73.5589 119.964L73.8702 120.308L73.8789 120.3L73.5589 119.964ZM73.7891 115.18L73.45 115.498L73.4573 115.505L73.465 115.513L73.7891 115.18ZM66.3805 113.93L66.2226 113.494L66.2167 113.496L66.3805 113.93ZM63.0409 116.314L62.7533 116.679L63.1038 116.955L63.3939 116.615L63.0409 116.314ZM55.7055 110.533L55.3519 110.233L55.0396 110.6L55.4179 110.898L55.7055 110.533ZM63.0666 105.717L63.2057 106.159L63.0666 105.717ZM83.1988 109.884L82.8714 110.213L82.8767 110.218L83.1988 109.884ZM84.3756 121.927L84.759 122.189L84.762 122.184L84.3756 121.927ZM82.0152 124.484L81.7314 124.117L81.7305 124.118L82.0152 124.484ZM78.8326 126.615L79.0677 127.016L79.0718 127.013L78.8326 126.615ZM75.6306 128.856L75.9371 129.204L75.9452 129.197L75.6306 128.856ZM74.3073 131.259L74.2264 131.716L74.6835 131.796L74.7645 131.339L74.3073 131.259ZM62.8041 142.357L62.4278 142.629L62.4323 142.635L62.8041 142.357ZM64.1853 134.242L63.9383 133.849L63.9321 133.853L64.1853 134.242ZM73.1075 135.815L72.7405 136.1L73.1075 135.815ZM71.6719 143.92L71.9256 144.309L71.9319 144.305L71.6719 143.92ZM65.0807 129.632C65.3901 127.885 66.0203 126.563 66.9413 125.627L66.2795 124.976C65.1935 126.08 64.4991 127.591 64.1663 129.471L65.0807 129.632ZM66.9459 125.622C67.9223 124.601 69.2822 123.523 71.0377 122.389L70.5342 121.609C68.7421 122.767 67.3183 123.89 66.2749 124.981L66.9459 125.622ZM71.0382 122.389C72.2715 121.59 73.2197 120.896 73.8701 120.308L73.2477 119.62C72.6513 120.158 71.7509 120.821 70.5337 121.61L71.0382 122.389ZM73.8789 120.3C74.5712 119.641 75.0088 118.874 75.1631 118.003L74.2488 117.842C74.1333 118.494 73.8062 119.088 73.2389 119.628L73.8789 120.3ZM75.1631 118.003C75.3776 116.792 75.0152 115.726 74.1131 114.848L73.465 115.513C74.158 116.187 74.4069 116.949 74.2488 117.842L75.1631 118.003ZM74.1282 114.863C73.2866 113.964 72.0997 113.401 70.616 113.14L70.4541 114.054C71.7994 114.291 72.7819 114.784 73.45 115.498L74.1282 114.863ZM70.616 113.14C69.0894 112.87 67.6219 112.986 66.2226 113.494L66.5385 114.366C67.777 113.917 69.0792 113.811 70.4541 114.054L70.616 113.14ZM66.2167 113.496C64.8564 114.009 63.6794 114.852 62.6879 116.013L63.3939 116.615C64.29 115.566 65.3393 114.819 66.5443 114.364L66.2167 113.496ZM63.3285 115.95L55.9931 110.168L55.4179 110.898L62.7533 116.679L63.3285 115.95ZM56.0591 110.834C57.9366 108.627 60.3147 107.069 63.2057 106.159L62.9275 105.274C59.877 106.234 57.3478 107.887 55.3519 110.233L56.0591 110.834ZM63.2057 106.159C66.0894 105.252 69.4191 105.12 73.2084 105.789L73.3704 104.874C69.4707 104.187 65.9851 104.312 62.9275 105.274L63.2057 106.159ZM73.2084 105.789C77.4638 106.539 80.6686 108.026 82.8715 110.213L83.526 109.554C81.1485 107.194 77.747 105.646 73.3704 104.874L73.2084 105.789ZM82.8767 110.218C85.0965 112.353 85.9285 114.932 85.3834 118.01L86.2978 118.171C86.896 114.794 85.9668 111.902 83.5208 109.549L82.8767 110.218ZM85.3834 118.01C85.1293 119.445 84.6614 120.661 83.9892 121.67L84.762 122.184C85.5165 121.052 86.0252 119.71 86.2978 118.171L85.3834 118.01ZM83.9923 121.666C83.3089 122.666 82.5545 123.481 81.7314 124.117L82.299 124.851C83.2093 124.148 84.0285 123.258 84.7589 122.189L83.9923 121.666ZM81.7305 124.118C80.9259 124.743 79.8817 125.443 78.5933 126.218L79.0718 127.013C80.3789 126.227 81.4565 125.506 82.2999 124.85L81.7305 124.118ZM78.5975 126.215C77.1662 127.056 76.0665 127.823 75.316 128.514L75.9452 129.197C76.6251 128.57 77.66 127.843 79.0676 127.015L78.5975 126.215ZM75.3242 128.507C74.5317 129.204 74.0409 130.101 73.8501 131.178L74.7645 131.339C74.9206 130.458 75.312 129.753 75.937 129.204L75.3242 128.507ZM74.3883 130.802L64.7044 129.094L64.5425 130.008L74.2264 131.716L74.3883 130.802ZM67.0027 144.308C65.327 144.013 64.0646 143.265 63.1759 142.078L62.4323 142.635C63.4794 144.033 64.9622 144.891 66.8408 145.223L67.0027 144.308ZM63.1804 142.084C62.2915 140.856 61.9826 139.521 62.243 138.051L61.3286 137.889C61.0238 139.61 61.3938 141.2 62.4278 142.629L63.1804 142.084ZM62.243 138.051C62.5111 136.537 63.2427 135.41 64.4385 134.631L63.9321 133.853C62.5067 134.781 61.6386 136.139 61.3286 137.889L62.243 138.051ZM64.4323 134.635C65.6664 133.859 67.1258 133.605 68.8449 133.908L69.0068 132.994C67.099 132.658 65.398 132.931 63.9383 133.849L64.4323 134.635ZM68.8449 133.908C70.5639 134.211 71.8478 134.949 72.7405 136.1L73.4745 135.531C72.4186 134.169 70.9147 133.33 69.0068 132.994L68.8449 133.908ZM72.7405 136.1C73.6308 137.248 73.9455 138.558 73.6783 140.067L74.5926 140.228C74.9035 138.473 74.5329 136.895 73.4745 135.531L72.7405 136.1ZM73.6783 140.067C73.4179 141.537 72.669 142.686 71.412 143.536L71.9319 144.305C73.3943 143.316 74.2878 141.949 74.5926 140.228L73.6783 140.067ZM71.4183 143.532C70.1777 144.341 68.7175 144.611 67.0027 144.308L66.8408 145.223C68.7529 145.56 70.4595 145.266 71.9255 144.309L71.4183 143.532Z" fill="#271A58" mask="url(#path-16-outside-4_18933_1035)"/>
<rect x="0.202599" y="0.28958" width="96.1033" height="128.304" rx="19.75" transform="matrix(0.984808 0.173648 -0.174411 0.984673 134.703 70.9754)" fill="#009EE4"/>
<rect x="0.202599" y="0.28958" width="96.1033" height="128.304" rx="19.75" transform="matrix(0.984808 0.173648 -0.174411 0.984673 134.703 70.9754)" stroke="#271A58" stroke-width="0.5"/>
<mask id="path-19-outside-5_18933_1035" maskUnits="userSpaceOnUse" x="153.827" y="123.059" width="32.5198" height="38.1674" fill="black">
<rect fill="white" x="153.827" y="123.059" width="32.5198" height="38.1674"/>
<path d="M166.474 146.213C166.733 144.75 167.267 143.607 168.077 142.784C168.892 141.932 170.015 141.044 171.446 140.12C172.434 139.48 173.18 138.932 173.683 138.478C174.191 137.994 174.499 137.445 174.608 136.831C174.758 135.983 174.512 135.245 173.868 134.619C173.259 133.968 172.384 133.543 171.243 133.341C170.073 133.135 168.956 133.225 167.892 133.61C166.857 134.001 165.959 134.642 165.197 135.534L159.279 130.87C160.842 129.033 162.821 127.738 165.218 126.984C167.615 126.23 170.364 126.127 173.465 126.673C176.947 127.287 179.612 128.512 181.46 130.346C183.342 132.156 184.052 134.363 183.591 136.967C183.378 138.166 182.985 139.198 182.409 140.062C181.839 140.897 181.204 141.584 180.505 142.125C179.84 142.641 178.984 143.214 177.937 143.844C176.792 144.517 175.931 145.12 175.354 145.651C174.782 146.154 174.426 146.8 174.286 147.59L166.474 146.213ZM168.328 158.487C166.894 158.234 165.787 157.586 165.006 156.543C164.231 155.471 163.957 154.292 164.185 153.004C164.418 151.688 165.063 150.685 166.121 149.997C167.207 149.314 168.482 149.101 169.945 149.359C171.408 149.617 172.532 150.253 173.319 151.266C174.105 152.28 174.381 153.445 174.148 154.761C173.92 156.048 173.257 157.063 172.16 157.805C171.069 158.517 169.791 158.745 168.328 158.487Z"/>
</mask>
<path d="M166.474 146.213C166.733 144.75 167.267 143.607 168.077 142.784C168.892 141.932 170.015 141.044 171.446 140.12C172.434 139.48 173.18 138.932 173.683 138.478C174.191 137.994 174.499 137.445 174.608 136.831C174.758 135.983 174.512 135.245 173.868 134.619C173.259 133.968 172.384 133.543 171.243 133.341C170.073 133.135 168.956 133.225 167.892 133.61C166.857 134.001 165.959 134.642 165.197 135.534L159.279 130.87C160.842 129.033 162.821 127.738 165.218 126.984C167.615 126.23 170.364 126.127 173.465 126.673C176.947 127.287 179.612 128.512 181.46 130.346C183.342 132.156 184.052 134.363 183.591 136.967C183.378 138.166 182.985 139.198 182.409 140.062C181.839 140.897 181.204 141.584 180.505 142.125C179.84 142.641 178.984 143.214 177.937 143.844C176.792 144.517 175.931 145.12 175.354 145.651C174.782 146.154 174.426 146.8 174.286 147.59L166.474 146.213ZM168.328 158.487C166.894 158.234 165.787 157.586 165.006 156.543C164.231 155.471 163.957 154.292 164.185 153.004C164.418 151.688 165.063 150.685 166.121 149.997C167.207 149.314 168.482 149.101 169.945 149.359C171.408 149.617 172.532 150.253 173.319 151.266C174.105 152.28 174.381 153.445 174.148 154.761C173.92 156.048 173.257 157.063 172.16 157.805C171.069 158.517 169.791 158.745 168.328 158.487Z" fill="white"/>
<path d="M166.474 146.213L166.017 146.132L165.936 146.589L166.393 146.67L166.474 146.213ZM168.077 142.784L168.408 143.11L168.412 143.105L168.077 142.784ZM171.446 140.12L171.697 140.51L171.698 140.51L171.446 140.12ZM173.683 138.478L173.994 138.822L174.003 138.814L173.683 138.478ZM173.868 134.619L173.529 134.936L173.537 134.944L173.544 134.952L173.868 134.619ZM167.892 133.61L167.734 133.174L167.728 133.176L167.892 133.61ZM165.197 135.534L164.91 135.898L165.26 136.175L165.55 135.835L165.197 135.534ZM159.279 130.87L158.926 130.569L158.614 130.936L158.992 131.234L159.279 130.87ZM165.218 126.984L165.357 127.427L165.357 127.427L165.218 126.984ZM181.46 130.346L181.132 130.675L181.138 130.68L181.46 130.346ZM182.409 140.062L182.792 140.324L182.795 140.319L182.409 140.062ZM180.505 142.125L180.221 141.758L180.22 141.758L180.505 142.125ZM177.937 143.844L178.172 144.244L178.176 144.242L177.937 143.844ZM175.354 145.651L175.661 146L175.669 145.993L175.354 145.651ZM174.286 147.59L174.205 148.047L174.663 148.128L174.744 147.671L174.286 147.59ZM165.006 156.543L164.63 156.816L164.634 156.822L165.006 156.543ZM166.121 149.997L165.873 149.604L165.867 149.608L166.121 149.997ZM173.319 151.266L172.952 151.551L173.319 151.266ZM172.16 157.805L172.414 158.194L172.42 158.189L172.16 157.805ZM166.931 146.293C167.179 144.896 167.681 143.849 168.408 143.11L167.746 142.459C166.854 143.366 166.288 144.603 166.017 146.132L166.931 146.293ZM168.412 143.105C169.194 142.288 170.285 141.422 171.697 140.51L171.194 139.73C169.745 140.666 168.59 141.577 167.741 142.464L168.412 143.105ZM171.698 140.51C172.694 139.864 173.464 139.301 173.994 138.822L173.371 138.134C172.896 138.564 172.174 139.095 171.193 139.731L171.698 140.51ZM174.003 138.814C174.573 138.271 174.937 137.635 175.065 136.912L174.151 136.75C174.061 137.255 173.808 137.718 173.363 138.142L174.003 138.814ZM175.065 136.912C175.244 135.904 174.94 135.014 174.192 134.286L173.544 134.952C174.083 135.476 174.273 136.061 174.151 136.75L175.065 136.912ZM174.207 134.301C173.512 133.558 172.534 133.098 171.324 132.884L171.162 133.798C172.234 133.987 173.007 134.378 173.529 134.936L174.207 134.301ZM171.324 132.884C170.078 132.664 168.878 132.759 167.734 133.174L168.049 134.047C169.033 133.69 170.068 133.605 171.162 133.798L171.324 132.884ZM167.728 133.176C166.615 133.596 165.653 134.285 164.844 135.232L165.55 135.835C166.264 134.999 167.098 134.406 168.055 134.044L167.728 133.176ZM165.485 135.169L159.567 130.505L158.992 131.234L164.91 135.898L165.485 135.169ZM159.633 131.17C161.136 129.404 163.04 128.156 165.357 127.427L165.079 126.541C162.603 127.321 160.547 128.663 158.926 130.569L159.633 131.17ZM165.357 127.427C167.667 126.7 170.338 126.593 173.384 127.131L173.546 126.216C170.389 125.66 167.562 125.76 165.079 126.541L165.357 127.427ZM173.384 127.131C176.806 127.734 179.372 128.928 181.132 130.675L181.787 130.016C179.852 128.095 177.089 126.841 173.546 126.216L173.384 127.131ZM181.138 130.68C182.907 132.382 183.568 134.432 183.134 136.886L184.048 137.047C184.536 134.293 183.777 131.93 181.782 130.011L181.138 130.68ZM183.134 136.886C182.931 138.033 182.557 139.003 182.023 139.805L182.795 140.319C183.412 139.393 183.826 138.299 184.048 137.047L183.134 136.886ZM182.026 139.8C181.479 140.601 180.877 141.251 180.221 141.758L180.789 142.492C181.531 141.918 182.199 141.193 182.792 140.324L182.026 139.8ZM180.22 141.758C179.575 142.259 178.736 142.822 177.698 143.447L178.176 144.242C179.233 143.606 180.105 143.023 180.79 142.491L180.22 141.758ZM177.702 143.444C176.545 144.124 175.652 144.746 175.039 145.31L175.669 145.993C176.21 145.493 177.039 144.91 178.172 144.244L177.702 143.444ZM175.048 145.303C174.392 145.879 173.986 146.622 173.829 147.51L174.744 147.671C174.866 146.979 175.172 146.429 175.66 146L175.048 145.303ZM174.367 147.133L166.555 145.755L166.393 146.67L174.205 148.047L174.367 147.133ZM168.409 158.03C167.077 157.795 166.08 157.202 165.378 156.265L164.634 156.822C165.495 157.97 166.712 158.673 168.247 158.944L168.409 158.03ZM165.383 156.271C164.679 155.299 164.436 154.247 164.642 153.085L163.728 152.924C163.477 154.337 163.782 155.643 164.63 156.816L165.383 156.271ZM164.642 153.085C164.854 151.887 165.431 151 166.374 150.386L165.867 149.608C164.695 150.371 163.982 151.489 163.728 152.924L164.642 153.085ZM166.368 150.39C167.341 149.777 168.495 149.575 169.864 149.816L170.026 148.902C168.469 148.627 167.073 148.85 165.874 149.604L166.368 150.39ZM169.864 149.816C171.233 150.057 172.247 150.642 172.952 151.551L173.686 150.982C172.818 149.863 171.583 149.176 170.026 148.902L169.864 149.816ZM172.952 151.551C173.654 152.456 173.902 153.487 173.691 154.681L174.605 154.842C174.86 153.402 174.556 152.103 173.686 150.982L172.952 151.551ZM173.691 154.681C173.485 155.842 172.895 156.748 171.9 157.42L172.42 158.189C173.62 157.378 174.355 156.255 174.605 154.842L173.691 154.681ZM171.907 157.416C170.928 158.055 169.773 158.27 168.409 158.03L168.247 158.944C169.809 159.219 171.209 158.98 172.414 158.194L171.907 157.416Z" fill="#271A58" mask="url(#path-19-outside-5_18933_1035)"/>
<rect x="0.202599" y="0.28958" width="96.1033" height="128.304" rx="19.75" transform="matrix(0.984808 0.173648 -0.174411 0.984673 235.423 88.7351)" fill="#99D100"/>
<rect x="0.202599" y="0.28958" width="96.1033" height="128.304" rx="19.75" transform="matrix(0.984808 0.173648 -0.174411 0.984673 235.423 88.7351)" stroke="#271A58" stroke-width="0.5"/>
<mask id="path-22-outside-6_18933_1035" maskUnits="userSpaceOnUse" x="249.911" y="137.17" width="40.6343" height="46.2756" fill="black">
<rect fill="white" x="249.911" y="137.17" width="40.6343" height="46.2756"/>
<path d="M266.064 165.07C266.385 163.257 267.047 161.841 268.051 160.821C269.061 159.765 270.453 158.664 272.226 157.518C273.452 156.725 274.376 156.046 274.999 155.483C275.629 154.884 276.011 154.203 276.146 153.442C276.333 152.39 276.027 151.476 275.229 150.699C274.475 149.893 273.39 149.365 271.975 149.116C270.525 148.86 269.14 148.971 267.821 149.449C266.538 149.934 265.425 150.728 264.481 151.833L257.146 146.052C259.083 143.776 261.536 142.171 264.507 141.236C267.478 140.301 270.885 140.173 274.73 140.851C279.046 141.612 282.349 143.129 284.639 145.403C286.972 147.647 287.853 150.382 287.281 153.61C287.018 155.097 286.529 156.376 285.816 157.446C285.109 158.481 284.322 159.333 283.456 160.003C282.632 160.643 281.571 161.354 280.273 162.135C278.854 162.969 277.786 163.716 277.071 164.375C276.362 164.998 275.921 165.799 275.748 166.778L266.064 165.07ZM268.362 180.285C266.585 179.971 265.212 179.168 264.245 177.876C263.283 176.547 262.944 175.085 263.226 173.489C263.515 171.857 264.315 170.615 265.626 169.761C266.973 168.914 268.553 168.651 270.366 168.97C272.18 169.29 273.574 170.078 274.548 171.335C275.522 172.591 275.865 174.035 275.576 175.667C275.293 177.262 274.472 178.52 273.112 179.44C271.759 180.323 270.176 180.605 268.362 180.285Z"/>
</mask>
<path d="M266.064 165.07C266.385 163.257 267.047 161.841 268.051 160.821C269.061 159.765 270.453 158.664 272.226 157.518C273.452 156.725 274.376 156.046 274.999 155.483C275.629 154.884 276.011 154.203 276.146 153.442C276.333 152.39 276.027 151.476 275.229 150.699C274.475 149.893 273.39 149.365 271.975 149.116C270.525 148.86 269.14 148.971 267.821 149.449C266.538 149.934 265.425 150.728 264.481 151.833L257.146 146.052C259.083 143.776 261.536 142.171 264.507 141.236C267.478 140.301 270.885 140.173 274.73 140.851C279.046 141.612 282.349 143.129 284.639 145.403C286.972 147.647 287.853 150.382 287.281 153.61C287.018 155.097 286.529 156.376 285.816 157.446C285.109 158.481 284.322 159.333 283.456 160.003C282.632 160.643 281.571 161.354 280.273 162.135C278.854 162.969 277.786 163.716 277.071 164.375C276.362 164.998 275.921 165.799 275.748 166.778L266.064 165.07ZM268.362 180.285C266.585 179.971 265.212 179.168 264.245 177.876C263.283 176.547 262.944 175.085 263.226 173.489C263.515 171.857 264.315 170.615 265.626 169.761C266.973 168.914 268.553 168.651 270.366 168.97C272.18 169.29 273.574 170.078 274.548 171.335C275.522 172.591 275.865 174.035 275.576 175.667C275.293 177.262 274.472 178.52 273.112 179.44C271.759 180.323 270.176 180.605 268.362 180.285Z" fill="white"/>
<path d="M266.064 165.07L265.607 164.99L265.526 165.447L265.983 165.528L266.064 165.07ZM268.051 160.821L268.382 161.146L268.386 161.142L268.051 160.821ZM272.226 157.518L272.478 157.908L272.479 157.908L272.226 157.518ZM274.999 155.483L275.311 155.827L275.319 155.819L274.999 155.483ZM275.229 150.699L274.89 151.017L274.898 151.025L274.905 151.032L275.229 150.699ZM267.821 149.449L267.663 149.013L267.657 149.015L267.821 149.449ZM264.481 151.833L264.194 152.198L264.544 152.474L264.834 152.135L264.481 151.833ZM257.146 146.052L256.792 145.752L256.48 146.119L256.858 146.417L257.146 146.052ZM264.507 141.236L264.646 141.679L264.507 141.236ZM284.639 145.403L284.312 145.732L284.317 145.737L284.639 145.403ZM285.816 157.446L286.199 157.708L286.202 157.704L285.816 157.446ZM283.456 160.003L283.172 159.636L283.171 159.637L283.456 160.003ZM280.273 162.135L280.508 162.535L280.512 162.532L280.273 162.135ZM277.071 164.375L277.378 164.723L277.386 164.716L277.071 164.375ZM275.748 166.778L275.667 167.235L276.124 167.316L276.205 166.859L275.748 166.778ZM264.245 177.876L263.868 178.148L263.873 178.154L264.245 177.876ZM265.626 169.761L265.379 169.368L265.373 169.372L265.626 169.761ZM274.548 171.335L274.181 171.619L274.548 171.335ZM273.112 179.44L273.366 179.828L273.372 179.824L273.112 179.44ZM266.521 165.151C266.831 163.404 267.461 162.082 268.382 161.146L267.72 160.496C266.634 161.599 265.94 163.111 265.607 164.99L266.521 165.151ZM268.386 161.142C269.363 160.121 270.723 159.042 272.478 157.908L271.975 157.129C270.183 158.286 268.759 159.409 267.715 160.5L268.386 161.142ZM272.479 157.908C273.712 157.109 274.66 156.415 275.311 155.827L274.688 155.139C274.092 155.678 273.191 156.34 271.974 157.129L272.479 157.908ZM275.319 155.819C276.012 155.16 276.449 154.393 276.604 153.522L275.689 153.361C275.574 154.013 275.247 154.607 274.679 155.147L275.319 155.819ZM276.604 153.522C276.818 152.312 276.456 151.245 275.554 150.367L274.905 151.032C275.598 151.707 275.847 152.468 275.689 153.361L276.604 153.522ZM275.569 150.382C274.727 149.483 273.54 148.92 272.056 148.659L271.895 149.573C273.24 149.81 274.222 150.303 274.89 151.017L275.569 150.382ZM272.056 148.659C270.53 148.39 269.062 148.506 267.663 149.013L267.979 149.886C269.217 149.437 270.52 149.331 271.895 149.573L272.056 148.659ZM267.657 149.015C266.297 149.529 265.12 150.371 264.128 151.532L264.834 152.135C265.73 151.085 266.78 150.339 267.985 149.883L267.657 149.015ZM264.769 151.469L257.434 145.688L256.858 146.417L264.194 152.198L264.769 151.469ZM257.5 146.353C259.377 144.146 261.755 142.588 264.646 141.679L264.368 140.793C261.317 141.753 258.788 143.406 256.792 145.752L257.5 146.353ZM264.646 141.679C267.53 140.771 270.86 140.64 274.649 141.308L274.811 140.394C270.911 139.706 267.426 139.831 264.368 140.793L264.646 141.679ZM274.649 141.308C278.904 142.058 282.109 143.545 284.312 145.732L284.966 145.073C282.589 142.713 279.187 141.165 274.811 140.394L274.649 141.308ZM284.317 145.737C286.537 147.873 287.369 150.452 286.824 153.529L287.738 153.69C288.336 150.313 287.407 147.421 284.961 145.068L284.317 145.737ZM286.824 153.529C286.57 154.964 286.102 156.18 285.43 157.189L286.202 157.704C286.957 156.571 287.466 155.23 287.738 153.69L286.824 153.529ZM285.433 157.185C284.749 158.185 283.995 159 283.172 159.636L283.739 160.37C284.65 159.667 285.469 158.777 286.199 157.708L285.433 157.185ZM283.171 159.637C282.366 160.262 281.322 160.962 280.034 161.737L280.512 162.532C281.819 161.746 282.897 161.025 283.74 160.37L283.171 159.637ZM280.038 161.735C278.607 162.576 277.507 163.342 276.756 164.034L277.386 164.716C278.066 164.089 279.1 163.362 280.508 162.535L280.038 161.735ZM276.765 164.026C275.972 164.723 275.481 165.62 275.291 166.697L276.205 166.859C276.361 165.977 276.752 165.273 277.377 164.723L276.765 164.026ZM275.829 166.321L266.145 164.613L265.983 165.528L275.667 167.235L275.829 166.321ZM268.443 179.828C266.767 179.532 265.505 178.784 264.616 177.598L263.873 178.154C264.92 179.553 266.403 180.411 268.281 180.742L268.443 179.828ZM264.621 177.604C263.732 176.375 263.423 175.04 263.683 173.57L262.769 173.409C262.464 175.13 262.834 176.719 263.868 178.148L264.621 177.604ZM263.683 173.57C263.952 172.056 264.683 170.929 265.879 170.15L265.373 169.372C263.947 170.301 263.079 171.659 262.769 173.409L263.683 173.57ZM265.873 170.154C267.107 169.378 268.566 169.124 270.285 169.428L270.447 168.513C268.539 168.177 266.838 168.45 265.379 169.368L265.873 170.154ZM270.285 169.428C272.004 169.731 273.288 170.468 274.181 171.619L274.915 171.05C273.859 169.688 272.355 168.85 270.447 168.513L270.285 169.428ZM274.181 171.619C275.071 172.767 275.386 174.077 275.119 175.586L276.033 175.747C276.344 173.993 275.973 172.415 274.915 171.05L274.181 171.619ZM275.119 175.586C274.858 177.056 274.109 178.205 272.852 179.055L273.372 179.824C274.835 178.835 275.728 177.469 276.033 175.747L275.119 175.586ZM272.859 179.051C271.618 179.861 270.158 180.13 268.443 179.828L268.281 180.742C270.193 181.079 271.9 180.785 273.366 179.828L272.859 179.051Z" fill="#271A58" mask="url(#path-22-outside-6_18933_1035)"/>
<rect x="0.202599" y="0.28958" width="96.1033" height="128.304" rx="19.75" transform="matrix(0.984808 0.173648 -0.174411 0.984673 336.143 106.495)" fill="#FFC700"/>
<rect x="0.202599" y="0.28958" width="96.1033" height="128.304" rx="19.75" transform="matrix(0.984808 0.173648 -0.174411 0.984673 336.143 106.495)" stroke="#271A58" stroke-width="0.5"/>
<rect x="0.202599" y="0.28958" width="96.1033" height="128.304" rx="19.75" transform="matrix(0.984808 0.173648 -0.174411 0.984673 -90.0714 167.79)" fill="#009EE4"/>
<rect x="0.202599" y="0.28958" width="96.1033" height="128.304" rx="19.75" transform="matrix(0.984808 0.173648 -0.174411 0.984673 -90.0714 167.79)" stroke="#271A58" stroke-width="0.5"/>
<rect x="0.202599" y="0.28958" width="96.1033" height="128.304" rx="19.75" transform="matrix(0.984808 0.173648 -0.174411 0.984673 10.6493 185.55)" fill="#99D100"/>
<rect x="0.202599" y="0.28958" width="96.1033" height="128.304" rx="19.75" transform="matrix(0.984808 0.173648 -0.174411 0.984673 10.6493 185.55)" stroke="#271A58" stroke-width="0.5"/>
<mask id="path-27-outside-7_18933_1035" maskUnits="userSpaceOnUse" x="25.1369" y="233.985" width="40.6343" height="46.2756" fill="black">
<rect fill="white" x="25.1369" y="233.985" width="40.6343" height="46.2756"/>
<path d="M41.29 261.885C41.6111 260.072 42.2734 258.655 43.2769 257.635C44.2868 256.579 45.6787 255.479 47.4525 254.333C48.6777 253.539 49.602 252.861 50.2254 252.298C50.8552 251.698 51.2376 251.018 51.3725 250.256C51.5587 249.204 51.2531 248.29 50.4556 247.514C49.7007 246.708 48.6161 246.18 47.2016 245.93C45.7508 245.675 44.366 245.786 43.047 246.264C41.7644 246.748 40.6512 247.543 39.7074 248.648L32.372 242.867C34.3087 240.591 36.7624 238.985 39.7331 238.05C42.7038 237.116 46.1114 236.987 49.9559 237.665C54.2719 238.426 57.5751 239.944 59.8653 242.217C62.1982 244.461 63.0788 247.197 62.5071 250.424C62.2438 251.911 61.7554 253.19 61.0421 254.261C60.3352 255.296 59.5484 256.148 58.6817 256.818C57.8577 257.458 56.7968 258.168 55.4991 258.949C54.0796 259.783 53.0123 260.53 52.2971 261.189C51.5884 261.812 51.1473 262.613 50.9738 263.592L41.29 261.885ZM43.5883 277.099C41.8111 276.786 40.4385 275.983 39.4706 274.69C38.5091 273.362 38.1697 271.899 38.4523 270.304C38.7414 268.672 39.5412 267.429 40.8518 266.576C42.1987 265.729 43.7789 265.465 45.5923 265.785C47.4058 266.105 48.7997 266.893 49.774 268.149C50.7484 269.405 51.091 270.849 50.802 272.481C50.5193 274.077 49.6982 275.334 48.3384 276.254C46.9851 277.137 45.4017 277.419 43.5883 277.099Z"/>
</mask>
<path d="M41.29 261.885C41.6111 260.072 42.2734 258.655 43.2769 257.635C44.2868 256.579 45.6787 255.479 47.4525 254.333C48.6777 253.539 49.602 252.861 50.2254 252.298C50.8552 251.698 51.2376 251.018 51.3725 250.256C51.5587 249.204 51.2531 248.29 50.4556 247.514C49.7007 246.708 48.6161 246.18 47.2016 245.93C45.7508 245.675 44.366 245.786 43.047 246.264C41.7644 246.748 40.6512 247.543 39.7074 248.648L32.372 242.867C34.3087 240.591 36.7624 238.985 39.7331 238.05C42.7038 237.116 46.1114 236.987 49.9559 237.665C54.2719 238.426 57.5751 239.944 59.8653 242.217C62.1982 244.461 63.0788 247.197 62.5071 250.424C62.2438 251.911 61.7554 253.19 61.0421 254.261C60.3352 255.296 59.5484 256.148 58.6817 256.818C57.8577 257.458 56.7968 258.168 55.4991 258.949C54.0796 259.783 53.0123 260.53 52.2971 261.189C51.5884 261.812 51.1473 262.613 50.9738 263.592L41.29 261.885ZM43.5883 277.099C41.8111 276.786 40.4385 275.983 39.4706 274.69C38.5091 273.362 38.1697 271.899 38.4523 270.304C38.7414 268.672 39.5412 267.429 40.8518 266.576C42.1987 265.729 43.7789 265.465 45.5923 265.785C47.4058 266.105 48.7997 266.893 49.774 268.149C50.7484 269.405 51.091 270.849 50.802 272.481C50.5193 274.077 49.6982 275.334 48.3384 276.254C46.9851 277.137 45.4017 277.419 43.5883 277.099Z" fill="white"/>
<path d="M41.29 261.885L40.8328 261.804L40.7518 262.261L41.209 262.342L41.29 261.885ZM43.2769 257.635L43.6078 257.961L43.6124 257.956L43.2769 257.635ZM47.4525 254.333L47.7042 254.723L47.7047 254.722L47.4525 254.333ZM50.2254 252.298L50.5367 252.642L50.5454 252.634L50.2254 252.298ZM50.4556 247.514L50.1165 247.831L50.1238 247.839L50.1315 247.847L50.4556 247.514ZM43.047 246.264L42.8891 245.827L42.8832 245.829L43.047 246.264ZM39.7074 248.648L39.4198 249.012L39.7703 249.289L40.0604 248.949L39.7074 248.648ZM32.372 242.867L32.0185 242.566L31.7061 242.933L32.0844 243.231L32.372 242.867ZM39.7331 238.05L39.8722 238.493L39.7331 238.05ZM59.8653 242.217L59.5379 242.547L59.5432 242.552L59.8653 242.217ZM61.0421 254.261L61.4255 254.523L61.4285 254.518L61.0421 254.261ZM58.6817 256.818L58.3979 256.451L58.397 256.451L58.6817 256.818ZM55.4991 258.949L55.7342 259.349L55.7383 259.347L55.4991 258.949ZM52.2971 261.189L52.6036 261.538L52.6117 261.53L52.2971 261.189ZM50.9738 263.592L50.8929 264.05L51.35 264.13L51.431 263.673L50.9738 263.592ZM39.4706 274.69L39.0943 274.963L39.0989 274.969L39.4706 274.69ZM40.8518 266.576L40.6048 266.183L40.5986 266.187L40.8518 266.576ZM49.774 268.149L49.407 268.434L49.774 268.149ZM48.3384 276.254L48.5921 276.643L48.5984 276.638L48.3384 276.254ZM41.7472 261.966C42.0566 260.218 42.6868 258.897 43.6078 257.961L42.946 257.31C41.8601 258.414 41.1656 259.925 40.8328 261.804L41.7472 261.966ZM43.6124 257.956C44.5888 256.935 45.9487 255.857 47.7042 254.723L47.2007 253.943C45.4086 255.101 43.9848 256.224 42.9414 257.315L43.6124 257.956ZM47.7047 254.722C48.938 253.924 49.8862 253.229 50.5366 252.642L49.9142 251.953C49.3179 252.492 48.4174 253.155 47.2002 253.943L47.7047 254.722ZM50.5454 252.634C51.2377 251.975 51.6754 251.208 51.8296 250.337L50.9153 250.175C50.7998 250.827 50.4727 251.421 49.9054 251.961L50.5454 252.634ZM51.8296 250.337C52.0441 249.126 51.6817 248.059 50.7796 247.181L50.1315 247.847C50.8245 248.521 51.0734 249.283 50.9153 250.175L51.8296 250.337ZM50.7947 247.197C49.9531 246.298 48.7662 245.735 47.2825 245.473L47.1206 246.388C48.4659 246.625 49.4484 247.118 50.1165 247.831L50.7947 247.197ZM47.2825 245.473C45.7559 245.204 44.2884 245.32 42.8891 245.827L43.205 246.7C44.4435 246.251 45.7457 246.145 47.1206 246.388L47.2825 245.473ZM42.8832 245.829C41.5229 246.343 40.3459 247.186 39.3544 248.347L40.0604 248.949C40.9565 247.9 42.0058 247.153 43.2108 246.698L42.8832 245.829ZM39.995 248.283L32.6596 242.502L32.0844 243.231L39.4198 249.012L39.995 248.283ZM32.7256 243.167C34.6031 240.961 36.9812 239.403 39.8722 238.493L39.594 237.608C36.5435 238.567 34.0143 240.22 32.0185 242.566L32.7256 243.167ZM39.8722 238.493C42.7559 237.586 46.0856 237.454 49.8749 238.122L50.0369 237.208C46.1372 236.521 42.6516 236.646 39.594 237.608L39.8722 238.493ZM49.8749 238.122C54.1303 238.873 57.3351 240.36 59.538 242.547L60.1925 241.888C57.815 239.527 54.4135 237.98 50.0369 237.208L49.8749 238.122ZM59.5432 242.552C61.763 244.687 62.595 247.266 62.0499 250.344L62.9643 250.505C63.5626 247.127 62.6333 244.235 60.1873 241.883L59.5432 242.552ZM62.0499 250.344C61.7958 251.778 61.3279 252.995 60.6557 254.004L61.4285 254.518C62.183 253.385 62.6917 252.044 62.9643 250.505L62.0499 250.344ZM60.6588 253.999C59.9754 254.999 59.221 255.814 58.3979 256.451L58.9656 257.185C59.8758 256.481 60.695 255.592 61.4254 254.523L60.6588 253.999ZM58.397 256.451C57.5924 257.076 56.5482 257.776 55.2598 258.551L55.7383 259.347C57.0455 258.56 58.123 257.839 58.9664 257.184L58.397 256.451ZM55.264 258.549C53.8327 259.39 52.7331 260.156 51.9825 260.848L52.6117 261.53C53.2916 260.904 54.3265 260.177 55.7341 259.349L55.264 258.549ZM51.9907 260.841C51.1982 261.537 50.7074 262.435 50.5166 263.512L51.431 263.673C51.5871 262.792 51.9785 262.087 52.6036 261.538L51.9907 260.841ZM51.0548 263.135L41.3709 261.428L41.209 262.342L50.8929 264.05L51.0548 263.135ZM43.6692 276.642C41.9935 276.347 40.7311 275.599 39.8424 274.412L39.0989 274.969C40.1459 276.367 41.6287 277.225 43.5073 277.556L43.6692 276.642ZM39.8469 274.418C38.958 273.19 38.6491 271.854 38.9095 270.384L37.9951 270.223C37.6903 271.944 38.0603 273.533 39.0943 274.963L39.8469 274.418ZM38.9095 270.384C39.1777 268.87 39.9092 267.743 41.105 266.965L40.5986 266.187C39.1732 267.115 38.3051 268.473 37.9951 270.223L38.9095 270.384ZM41.0988 266.969C42.3329 266.193 43.7923 265.939 45.5114 266.242L45.6733 265.328C43.7655 264.991 42.0645 265.265 40.6048 266.183L41.0988 266.969ZM45.5114 266.242C47.2304 266.545 48.5143 267.283 49.407 268.434L50.141 267.864C49.0851 266.503 47.5812 265.664 45.6733 265.328L45.5114 266.242ZM49.407 268.434C50.2973 269.582 50.612 270.892 50.3448 272.401L51.2591 272.562C51.57 270.807 51.1994 269.229 50.141 267.864L49.407 268.434ZM50.3448 272.401C50.0844 273.871 49.3355 275.019 48.0785 275.87L48.5984 276.638C50.0608 275.649 50.9543 274.283 51.2591 272.562L50.3448 272.401ZM48.0848 275.865C46.8442 276.675 45.384 276.945 43.6692 276.642L43.5073 277.556C45.4194 277.894 47.126 277.6 48.592 276.643L48.0848 275.865Z" fill="#271A58" mask="url(#path-27-outside-7_18933_1035)"/>
<rect x="0.202599" y="0.28958" width="96.1033" height="128.304" rx="19.75" transform="matrix(0.984808 0.173648 -0.174411 0.984673 111.369 203.309)" fill="#009EE4"/>
<rect x="0.202599" y="0.28958" width="96.1033" height="128.304" rx="19.75" transform="matrix(0.984808 0.173648 -0.174411 0.984673 111.369 203.309)" stroke="#271A58" stroke-width="0.5"/>
<mask id="path-30-outside-8_18933_1035" maskUnits="userSpaceOnUse" x="125.857" y="251.744" width="40.6343" height="46.2756" fill="black">
<rect fill="white" x="125.857" y="251.744" width="40.6343" height="46.2756"/>
<path d="M142.01 279.644C142.331 277.831 142.993 276.415 143.997 275.395C145.007 274.339 146.398 273.238 148.172 272.092C149.397 271.299 150.322 270.62 150.945 270.057C151.575 269.458 151.957 268.777 152.092 268.016C152.278 266.964 151.973 266.05 151.175 265.273C150.42 264.467 149.336 263.939 147.921 263.69C146.471 263.434 145.086 263.545 143.767 264.023C142.484 264.508 141.371 265.302 140.427 266.407L133.092 260.626C135.028 258.35 137.482 256.745 140.453 255.81C143.423 254.875 146.831 254.747 150.676 255.425C154.992 256.186 158.295 257.703 160.585 259.977C162.918 262.221 163.799 264.956 163.227 268.184C162.963 269.671 162.475 270.95 161.762 272.02C161.055 273.055 160.268 273.907 159.401 274.577C158.577 275.217 157.517 275.928 156.219 276.709C154.799 277.543 153.732 278.29 153.017 278.949C152.308 279.572 151.867 280.373 151.694 281.352L142.01 279.644ZM144.308 294.859C142.531 294.545 141.158 293.742 140.19 292.45C139.229 291.121 138.889 289.659 139.172 288.063C139.461 286.431 140.261 285.189 141.572 284.335C142.918 283.488 144.499 283.225 146.312 283.544C148.126 283.864 149.519 284.652 150.494 285.908C151.468 287.165 151.811 288.609 151.522 290.241C151.239 291.836 150.418 293.094 149.058 294.014C147.705 294.897 146.121 295.179 144.308 294.859Z"/>
</mask>
<path d="M142.01 279.644C142.331 277.831 142.993 276.415 143.997 275.395C145.007 274.339 146.398 273.238 148.172 272.092C149.397 271.299 150.322 270.62 150.945 270.057C151.575 269.458 151.957 268.777 152.092 268.016C152.278 266.964 151.973 266.05 151.175 265.273C150.42 264.467 149.336 263.939 147.921 263.69C146.471 263.434 145.086 263.545 143.767 264.023C142.484 264.508 141.371 265.302 140.427 266.407L133.092 260.626C135.028 258.35 137.482 256.745 140.453 255.81C143.423 254.875 146.831 254.747 150.676 255.425C154.992 256.186 158.295 257.703 160.585 259.977C162.918 262.221 163.799 264.956 163.227 268.184C162.963 269.671 162.475 270.95 161.762 272.02C161.055 273.055 160.268 273.907 159.401 274.577C158.577 275.217 157.517 275.928 156.219 276.709C154.799 277.543 153.732 278.29 153.017 278.949C152.308 279.572 151.867 280.373 151.694 281.352L142.01 279.644ZM144.308 294.859C142.531 294.545 141.158 293.742 140.19 292.45C139.229 291.121 138.889 289.659 139.172 288.063C139.461 286.431 140.261 285.189 141.572 284.335C142.918 283.488 144.499 283.225 146.312 283.544C148.126 283.864 149.519 284.652 150.494 285.908C151.468 287.165 151.811 288.609 151.522 290.241C151.239 291.836 150.418 293.094 149.058 294.014C147.705 294.897 146.121 295.179 144.308 294.859Z" fill="white"/>
<path d="M142.01 279.644L141.553 279.564L141.472 280.021L141.929 280.102L142.01 279.644ZM143.997 275.395L144.328 275.72L144.332 275.716L143.997 275.395ZM148.172 272.092L148.424 272.482L148.424 272.482L148.172 272.092ZM150.945 270.057L151.256 270.401L151.265 270.393L150.945 270.057ZM151.175 265.273L150.836 265.591L150.844 265.599L150.851 265.606L151.175 265.273ZM143.767 264.023L143.609 263.587L143.603 263.589L143.767 264.023ZM140.427 266.407L140.14 266.772L140.49 267.048L140.78 266.709L140.427 266.407ZM133.092 260.626L132.738 260.326L132.426 260.693L132.804 260.991L133.092 260.626ZM140.453 255.81L140.592 256.253L140.453 255.81ZM160.585 259.977L160.258 260.306L160.263 260.311L160.585 259.977ZM161.762 272.02L162.145 272.282L162.148 272.278L161.762 272.02ZM159.401 274.577L159.118 274.21L159.117 274.211L159.401 274.577ZM156.219 276.709L156.454 277.109L156.458 277.106L156.219 276.709ZM153.017 278.949L153.323 279.297L153.331 279.29L153.017 278.949ZM151.694 281.352L151.613 281.809L152.07 281.89L152.151 281.433L151.694 281.352ZM140.19 292.45L139.814 292.722L139.819 292.728L140.19 292.45ZM141.572 284.335L141.324 283.942L141.318 283.946L141.572 284.335ZM150.494 285.908L150.127 286.193L150.494 285.908ZM149.058 294.014L149.312 294.402L149.318 294.398L149.058 294.014ZM142.467 279.725C142.776 277.978 143.407 276.656 144.328 275.72L143.666 275.07C142.58 276.173 141.885 277.685 141.553 279.564L142.467 279.725ZM144.332 275.716C145.309 274.695 146.668 273.616 148.424 272.482L147.92 271.703C146.128 272.86 144.705 273.983 143.661 275.074L144.332 275.716ZM148.424 272.482C149.658 271.683 150.606 270.989 151.256 270.401L150.634 269.713C150.038 270.252 149.137 270.914 147.92 271.703L148.424 272.482ZM151.265 270.393C151.957 269.734 152.395 268.967 152.549 268.096L151.635 267.935C151.519 268.587 151.192 269.181 150.625 269.721L151.265 270.393ZM152.549 268.096C152.764 266.886 152.401 265.819 151.499 264.941L150.851 265.606C151.544 266.281 151.793 267.042 151.635 267.935L152.549 268.096ZM151.514 264.956C150.673 264.057 149.486 263.494 148.002 263.233L147.84 264.147C149.186 264.384 150.168 264.877 150.836 265.591L151.514 264.956ZM148.002 263.233C146.476 262.964 145.008 263.08 143.609 263.587L143.925 264.46C145.163 264.011 146.465 263.905 147.84 264.147L148.002 263.233ZM143.603 263.589C142.243 264.103 141.066 264.945 140.074 266.106L140.78 266.709C141.676 265.659 142.726 264.912 143.931 264.457L143.603 263.589ZM140.715 266.043L133.379 260.262L132.804 260.991L140.14 266.772L140.715 266.043ZM133.445 260.927C135.323 258.72 137.701 257.162 140.592 256.253L140.314 255.367C137.263 256.327 134.734 257.98 132.738 260.326L133.445 260.927ZM140.592 256.253C143.476 255.345 146.805 255.214 150.595 255.882L150.757 254.968C146.857 254.28 143.371 254.405 140.314 255.367L140.592 256.253ZM150.595 255.882C154.85 256.632 158.055 258.119 160.258 260.306L160.912 259.647C158.535 257.287 155.133 255.739 150.757 254.968L150.595 255.882ZM160.263 260.311C162.483 262.446 163.315 265.026 162.77 268.103L163.684 268.264C164.282 264.887 163.353 261.995 160.907 259.642L160.263 260.311ZM162.77 268.103C162.516 269.538 162.048 270.754 161.375 271.763L162.148 272.278C162.903 271.145 163.411 269.803 163.684 268.264L162.77 268.103ZM161.378 271.759C160.695 272.759 159.941 273.574 159.118 274.21L159.685 274.944C160.596 274.241 161.415 273.351 162.145 272.282L161.378 271.759ZM159.117 274.211C158.312 274.836 157.268 275.536 155.98 276.311L156.458 277.106C157.765 276.32 158.843 275.599 159.686 274.944L159.117 274.211ZM155.984 276.309C154.552 277.15 153.453 277.916 152.702 278.608L153.331 279.29C154.011 278.663 155.046 277.936 156.454 277.109L155.984 276.309ZM152.71 278.6C151.918 279.297 151.427 280.194 151.236 281.271L152.151 281.433C152.307 280.551 152.698 279.847 153.323 279.297L152.71 278.6ZM151.775 280.895L142.091 279.187L141.929 280.102L151.613 281.809L151.775 280.895ZM144.389 294.402C142.713 294.106 141.451 293.358 140.562 292.172L139.819 292.728C140.866 294.127 142.348 294.985 144.227 295.316L144.389 294.402ZM140.567 292.178C139.678 290.949 139.369 289.614 139.629 288.144L138.715 287.983C138.41 289.704 138.78 291.293 139.814 292.722L140.567 292.178ZM139.629 288.144C139.897 286.63 140.629 285.503 141.825 284.724L141.318 283.946C139.893 284.875 139.025 286.233 138.715 287.983L139.629 288.144ZM141.819 284.728C143.053 283.952 144.512 283.698 146.231 284.002L146.393 283.087C144.485 282.751 142.784 283.024 141.325 283.942L141.819 284.728ZM146.231 284.002C147.95 284.305 149.234 285.042 150.127 286.193L150.861 285.624C149.805 284.262 148.301 283.424 146.393 283.087L146.231 284.002ZM150.127 286.193C151.017 287.341 151.332 288.651 151.064 290.16L151.979 290.321C152.29 288.567 151.919 286.989 150.861 285.624L150.127 286.193ZM151.064 290.16C150.804 291.63 150.055 292.779 148.798 293.629L149.318 294.398C150.781 293.409 151.674 292.043 151.979 290.321L151.064 290.16ZM148.805 293.625C147.564 294.435 146.104 294.704 144.389 294.402L144.227 295.316C146.139 295.653 147.846 295.359 149.312 294.402L148.805 293.625Z" fill="#271A58" mask="url(#path-30-outside-8_18933_1035)"/>
<rect x="0.202599" y="0.28958" width="96.1033" height="128.304" rx="19.75" transform="matrix(0.984808 0.173648 -0.174411 0.984673 212.089 221.069)" fill="#AD61FF"/>
<rect x="0.202599" y="0.28958" width="96.1033" height="128.304" rx="19.75" transform="matrix(0.984808 0.173648 -0.174411 0.984673 212.089 221.069)" stroke="#271A58" stroke-width="0.5"/>
<mask id="path-33-outside-9_18933_1035" maskUnits="userSpaceOnUse" x="231.213" y="273.153" width="32.5198" height="38.1674" fill="black">
<rect fill="white" x="231.213" y="273.153" width="32.5198" height="38.1674"/>
<path d="M243.86 296.306C244.119 294.843 244.654 293.701 245.463 292.878C246.278 292.026 247.401 291.138 248.832 290.214C249.82 289.573 250.566 289.026 251.069 288.572C251.577 288.088 251.885 287.539 251.994 286.924C252.145 286.076 251.898 285.339 251.255 284.712C250.646 284.062 249.771 283.636 248.629 283.435C247.459 283.228 246.342 283.318 245.278 283.704C244.243 284.094 243.345 284.736 242.583 285.627L236.666 280.963C238.228 279.127 240.208 277.832 242.604 277.078C245.001 276.324 247.75 276.22 250.851 276.767C254.333 277.381 256.998 278.605 258.846 280.439C260.728 282.249 261.438 284.456 260.977 287.06C260.765 288.26 260.371 289.291 259.795 290.155C259.225 290.99 258.59 291.678 257.891 292.218C257.226 292.735 256.37 293.308 255.323 293.938C254.178 294.611 253.317 295.213 252.74 295.745C252.168 296.248 251.813 296.894 251.673 297.684L243.86 296.306ZM245.714 308.58C244.281 308.328 243.173 307.68 242.392 306.637C241.617 305.565 241.343 304.385 241.571 303.098C241.804 301.781 242.449 300.779 243.507 300.09C244.593 299.407 245.868 299.194 247.331 299.452C248.794 299.71 249.919 300.346 250.705 301.36C251.491 302.373 251.767 303.538 251.534 304.855C251.306 306.142 250.644 307.157 249.547 307.898C248.455 308.611 247.177 308.838 245.714 308.58Z"/>
</mask>
<path d="M243.86 296.306C244.119 294.843 244.654 293.701 245.463 292.878C246.278 292.026 247.401 291.138 248.832 290.214C249.82 289.573 250.566 289.026 251.069 288.572C251.577 288.088 251.885 287.539 251.994 286.924C252.145 286.076 251.898 285.339 251.255 284.712C250.646 284.062 249.771 283.636 248.629 283.435C247.459 283.228 246.342 283.318 245.278 283.704C244.243 284.094 243.345 284.736 242.583 285.627L236.666 280.963C238.228 279.127 240.208 277.832 242.604 277.078C245.001 276.324 247.75 276.22 250.851 276.767C254.333 277.381 256.998 278.605 258.846 280.439C260.728 282.249 261.438 284.456 260.977 287.06C260.765 288.26 260.371 289.291 259.795 290.155C259.225 290.99 258.59 291.678 257.891 292.218C257.226 292.735 256.37 293.308 255.323 293.938C254.178 294.611 253.317 295.213 252.74 295.745C252.168 296.248 251.813 296.894 251.673 297.684L243.86 296.306ZM245.714 308.58C244.281 308.328 243.173 307.68 242.392 306.637C241.617 305.565 241.343 304.385 241.571 303.098C241.804 301.781 242.449 300.779 243.507 300.09C244.593 299.407 245.868 299.194 247.331 299.452C248.794 299.71 249.919 300.346 250.705 301.36C251.491 302.373 251.767 303.538 251.534 304.855C251.306 306.142 250.644 307.157 249.547 307.898C248.455 308.611 247.177 308.838 245.714 308.58Z" fill="white"/>
<path d="M243.86 296.306L243.403 296.226L243.322 296.683L243.779 296.763L243.86 296.306ZM245.463 292.878L245.794 293.203L245.799 293.199L245.463 292.878ZM248.832 290.214L249.084 290.603L249.084 290.603L248.832 290.214ZM251.069 288.572L251.38 288.916L251.389 288.908L251.069 288.572ZM251.255 284.712L250.916 285.03L250.923 285.038L250.931 285.045L251.255 284.712ZM245.278 283.704L245.12 283.267L245.114 283.269L245.278 283.704ZM242.583 285.627L242.296 285.992L242.646 286.268L242.937 285.928L242.583 285.627ZM236.666 280.963L236.312 280.663L236 281.03L236.378 281.328L236.666 280.963ZM242.604 277.078L242.743 277.52L242.743 277.52L242.604 277.078ZM258.846 280.439L258.519 280.769L258.524 280.774L258.846 280.439ZM259.795 290.155L260.179 290.417L260.182 290.413L259.795 290.155ZM257.891 292.218L257.607 291.851L257.606 291.852L257.891 292.218ZM255.323 293.938L255.559 294.338L255.563 294.335L255.323 293.938ZM252.74 295.745L253.047 296.094L253.055 296.086L252.74 295.745ZM251.673 297.684L251.592 298.141L252.049 298.221L252.13 297.764L251.673 297.684ZM242.392 306.637L242.016 306.909L242.021 306.915L242.392 306.637ZM243.507 300.09L243.26 299.698L243.254 299.702L243.507 300.09ZM250.705 301.36L250.338 301.644L250.705 301.36ZM249.547 307.898L249.8 308.287L249.807 308.283L249.547 307.898ZM244.317 296.387C244.565 294.99 245.067 293.942 245.794 293.203L245.132 292.552C244.24 293.459 243.674 294.697 243.403 296.226L244.317 296.387ZM245.799 293.199C246.58 292.382 247.671 291.516 249.084 290.603L248.58 289.824C247.131 290.76 245.976 291.67 245.128 292.557L245.799 293.199ZM249.084 290.603C250.081 289.958 250.85 289.395 251.38 288.916L250.758 288.227C250.282 288.657 249.56 289.189 248.58 289.824L249.084 290.603ZM251.389 288.908C251.96 288.364 252.323 287.729 252.451 287.005L251.537 286.844C251.448 287.349 251.194 287.811 250.749 288.235L251.389 288.908ZM252.451 287.005C252.63 285.998 252.327 285.108 251.579 284.38L250.931 285.045C251.469 285.57 251.659 286.154 251.537 286.844L252.451 287.005ZM251.594 284.395C250.898 283.652 249.921 283.191 248.71 282.978L248.548 283.892C249.62 284.081 250.393 284.472 250.916 285.03L251.594 284.395ZM248.71 282.978C247.464 282.758 246.264 282.853 245.12 283.267L245.436 284.14C246.419 283.784 247.454 283.699 248.548 283.892L248.71 282.978ZM245.114 283.269C244.002 283.69 243.04 284.379 242.23 285.326L242.937 285.928C243.65 285.093 244.484 284.499 245.442 284.138L245.114 283.269ZM242.871 285.263L236.953 280.599L236.378 281.328L242.296 285.992L242.871 285.263ZM237.019 281.264C238.523 279.497 240.426 278.249 242.743 277.52L242.465 276.635C239.989 277.414 237.934 278.757 236.312 280.663L237.019 281.264ZM242.743 277.52C245.053 276.794 247.724 276.687 250.771 277.224L250.932 276.31C247.776 275.753 244.949 275.853 242.465 276.635L242.743 277.52ZM250.771 277.224C254.192 277.827 256.758 279.021 258.519 280.769L259.173 280.11C257.238 278.189 254.475 276.934 250.932 276.31L250.771 277.224ZM258.524 280.774C260.293 282.475 260.955 284.526 260.52 286.98L261.434 287.141C261.922 284.387 261.163 282.024 259.168 280.105L258.524 280.774ZM260.52 286.98C260.317 288.127 259.943 289.096 259.409 289.898L260.182 290.413C260.798 289.487 261.213 288.393 261.434 287.141L260.52 286.98ZM259.412 289.894C258.865 290.694 258.263 291.344 257.607 291.851L258.175 292.585C258.918 292.011 259.585 291.286 260.179 290.417L259.412 289.894ZM257.606 291.852C256.961 292.353 256.122 292.916 255.084 293.54L255.563 294.335C256.619 293.7 257.492 293.116 258.176 292.585L257.606 291.852ZM255.088 293.538C253.931 294.218 253.038 294.839 252.426 295.404L253.055 296.086C253.597 295.587 254.425 295.004 255.559 294.338L255.088 293.538ZM252.434 295.396C251.778 295.973 251.373 296.715 251.216 297.603L252.13 297.764C252.252 297.072 252.559 296.522 253.047 296.093L252.434 295.396ZM251.754 297.227L243.941 295.849L243.779 296.763L251.592 298.141L251.754 297.227ZM245.795 308.123C244.463 307.888 243.466 307.296 242.764 306.359L242.021 306.915C242.881 308.064 244.098 308.767 245.633 309.037L245.795 308.123ZM242.769 306.365C242.066 305.393 241.822 304.34 242.028 303.179L241.114 303.017C240.864 304.43 241.168 305.737 242.016 306.909L242.769 306.365ZM242.028 303.179C242.24 301.98 242.817 301.093 243.76 300.479L243.254 299.702C242.081 300.465 241.368 301.583 241.114 303.017L242.028 303.179ZM243.754 300.483C244.728 299.871 245.882 299.668 247.25 299.91L247.412 298.995C245.855 298.721 244.459 298.943 243.26 299.698L243.754 300.483ZM247.25 299.91C248.619 300.151 249.633 300.736 250.338 301.644L251.072 301.075C250.204 299.956 248.97 299.27 247.412 298.995L247.25 299.91ZM250.338 301.644C251.04 302.549 251.288 303.58 251.077 304.774L251.991 304.935C252.246 303.496 251.942 302.197 251.072 301.075L250.338 301.644ZM251.077 304.774C250.871 305.936 250.281 306.842 249.287 307.514L249.807 308.283C251.006 307.472 251.741 306.348 251.991 304.935L251.077 304.774ZM249.293 307.51C248.314 308.149 247.16 308.364 245.795 308.123L245.633 309.037C247.195 309.313 248.596 309.073 249.8 308.287L249.293 307.51Z" fill="#271A58" mask="url(#path-33-outside-9_18933_1035)"/>
<rect x="0.202599" y="0.28958" width="96.1033" height="128.304" rx="19.75" transform="matrix(0.984808 0.173648 -0.174411 0.984673 312.809 238.829)" fill="#565EEF"/>
<rect x="0.202599" y="0.28958" width="96.1033" height="128.304" rx="19.75" transform="matrix(0.984808 0.173648 -0.174411 0.984673 312.809 238.829)" stroke="#271A58" stroke-width="0.5"/>
<g filter="url(#filter0_d_18933_1035)">
<rect width="125.343" height="167.124" rx="20" transform="matrix(0.984808 0.173648 -0.174411 0.984673 123.896 49.5706)" fill="#FFC700"/>
<rect x="-0.202599" y="-0.28958" width="125.843" height="167.624" rx="20.25" transform="matrix(0.984808 0.173648 -0.174411 0.984673 123.843 49.6013)" stroke="#271A58" stroke-width="0.5"/>
<rect x="-0.202599" y="-0.28958" width="125.843" height="167.624" rx="20.25" transform="matrix(0.984808 0.173648 -0.174411 0.984673 123.843 49.6013)" stroke="black" stroke-opacity="0.2" stroke-width="0.5"/>
</g>
<path d="M128.275 172.345L200.813 185.136L213.66 112.608L141.122 99.8171L128.275 172.345Z" fill="white"/>
</g>
<defs>
<filter id="filter0_d_18933_1035" x="56.654" y="25.3289" width="228.775" height="262.516" filterUnits="userSpaceOnUse" color-interpolation-filters="sRGB">
<feFlood flood-opacity="0" result="BackgroundImageFix"/>
<feColorMatrix in="SourceAlpha" type="matrix" values="0 0 0 0 0 0 0 0 0 0 0 0 0 0 0 0 0 0 127 0" result="hardAlpha"/>
<feMorphology radius="8.31143" operator="erode" in="SourceAlpha" result="effect1_dropShadow_18933_1035"/>
<feOffset dy="13.8524"/>
<feGaussianBlur stdDeviation="23.2027"/>
<feComposite in2="hardAlpha" operator="out"/>
<feColorMatrix type="matrix" values="0 0 0 0 0 0 0 0 0 0 0 0 0 0 0 0 0 0 0.3 0"/>
<feBlend mode="normal" in2="BackgroundImageFix" result="effect1_dropShadow_18933_1035"/>
<feBlend mode="normal" in="SourceGraphic" in2="effect1_dropShadow_18933_1035" result="shape"/>
</filter>
<clipPath id="clip0_18933_1035">
<rect y="0.228027" width="343" height="284.926" rx="30" fill="white"/>
</clipPath>
</defs>
</svg>
